<svg xmlns="http://www.w3.org/2000/svg" width="62.652" height="62.948" viewBox="0 0 62.652 62.948">
  <g id="healthcare-covid19-coronavirus-hand-hearth" transform="translate(-2.24 -2.199)">
    <path id="Tracé_519" data-name="Tracé 519" d="M38.684,13.21H35.526V10.053A1.053,1.053,0,0,0,34.474,9h-4.21a1.053,1.053,0,0,0-1.053,1.053V13.21H26.053A1.053,1.053,0,0,0,25,14.263v4.21a1.053,1.053,0,0,0,1.053,1.053H29.21v3.158a1.053,1.053,0,0,0,1.053,1.053h4.21a1.053,1.053,0,0,0,1.053-1.053V19.526h3.158a1.053,1.053,0,0,0,1.053-1.053v-4.21A1.053,1.053,0,0,0,38.684,13.21Zm-1.053,4.21H34.474a1.053,1.053,0,0,0-1.053,1.053v3.158H31.316V18.474a1.053,1.053,0,0,0-1.053-1.053H27.105V15.316h3.158a1.053,1.053,0,0,0,1.053-1.053V11.105h2.105v3.158a1.053,1.053,0,0,0,1.053,1.053h3.158Z" transform="translate(1.198 0.358)" fill="#bc412b"/>
    <path id="Tracé_520" data-name="Tracé 520" d="M61.136,18.6a4.82,4.82,0,0,0,.032-.558,4.232,4.232,0,0,0-3.347-4.116,4.285,4.285,0,0,0-4.947,3.126L48.242,30.376a1.717,1.717,0,0,0-.2.095l-9.305,5.453a9.491,9.491,0,0,0-4.684,8.168v9.916A1.053,1.053,0,0,0,33,55.06v8.421a1.053,1.053,0,0,0,1.053,1.053H48.789a1.053,1.053,0,0,0,1.053-1.053V55.06a1.053,1.053,0,0,0-1.053-1.053V51.692a3.2,3.2,0,0,1,1.053-2.358l7.116-6.326a5.191,5.191,0,0,0,1.6-2.579l4.568-17.084a4.163,4.163,0,0,0,.147-1.095A4.23,4.23,0,0,0,61.136,18.6Zm-6.253-.926a2.224,2.224,0,0,1,2.505-1.684,2.105,2.105,0,0,1,1.674,2.053v.021a4.316,4.316,0,0,0-4.095,3.221l-2.937,9.063a4.421,4.421,0,0,0-1.411-.4ZM47.737,62.428H35.105V56.113H47.737ZM61.094,22.8,56.515,39.892a3.138,3.138,0,0,1-.947,1.537l-7.126,6.326a5.322,5.322,0,0,0-1.758,3.937v2.316H36.158V44.092A7.423,7.423,0,0,1,39.8,37.734l9.295-5.442a2.105,2.105,0,0,1,2.884.768,2.168,2.168,0,0,1,.211,1.6,2.105,2.105,0,0,1-.989,1.274l-6.031,3.484a1.053,1.053,0,0,0,1.053,1.821l6.031-3.484A4.156,4.156,0,0,0,54.221,35.2a4.218,4.218,0,0,0-.421-3.189l-.063-.095,3.253-10.031A2.224,2.224,0,0,1,59.494,20.2a2.105,2.105,0,0,1,1.674,2.053A1.813,1.813,0,0,1,61.094,22.8Z" transform="translate(1.619 0.613)" fill="#3378e1"/>
    <path id="Tracé_521" data-name="Tracé 521" d="M31.461,54.007V44.092a9.491,9.491,0,0,0-4.684-8.168L17.471,30.46c-.063-.032-.137-.053-.2-.084l-4.6-13.252a4.323,4.323,0,0,0-4.979-3.2,4.232,4.232,0,0,0-3.347,4.116,4.819,4.819,0,0,0,.032.558A4.23,4.23,0,0,0,2.24,22.25a4.654,4.654,0,0,0,.137,1.095L6.956,40.418a5.175,5.175,0,0,0,1.6,2.589l7.105,6.326a3.17,3.17,0,0,1,1.063,2.358v2.316a1.053,1.053,0,0,0-1.053,1.053v8.421a1.053,1.053,0,0,0,1.053,1.053H31.461a1.053,1.053,0,0,0,1.053-1.053V55.06A1.053,1.053,0,0,0,31.461,54.007ZM6.45,18.039a2.105,2.105,0,0,1,1.663-2.053,2.275,2.275,0,0,1,2.547,1.758l4.232,12.2a4.421,4.421,0,0,0-1.411.4l-2.916-9.01A4.367,4.367,0,0,0,6.45,18.06Zm10.61,29.715L9.945,41.429A3.121,3.121,0,0,1,9,39.881L4.408,22.8a2.233,2.233,0,0,1-.063-.547A2.105,2.105,0,0,1,6.008,20.2a2.257,2.257,0,0,1,2.537,1.737l3.232,9.979-.063.095a4.218,4.218,0,0,0-.421,3.189,4.156,4.156,0,0,0,1.968,2.558l6.031,3.484a1.053,1.053,0,0,0,1.053-1.821l-6.031-3.484a2.105,2.105,0,0,1-.989-1.274,2.168,2.168,0,0,1,.211-1.6,2.105,2.105,0,0,1,2.874-.779l9.305,5.453a7.423,7.423,0,0,1,3.642,6.358v9.916H18.829V51.692A5.3,5.3,0,0,0,17.061,47.755ZM30.408,62.428H17.777V56.113H30.408Z" transform="translate(0 0.613)" fill="#3378e1"/>
    <path id="Tracé_522" data-name="Tracé 522" d="M47.789,5.286a10.52,10.52,0,0,0-14.891,0h0a10.525,10.525,0,1,0-14.89,14.878L32.155,34.312a1.053,1.053,0,0,0,1.488,0L47.791,20.165a10.532,10.532,0,0,0,0-14.879ZM32.9,32.08l-13.4-13.4A8.421,8.421,0,0,1,25.456,4.305a8.333,8.333,0,0,1,5.95,2.47l.747.747a1.053,1.053,0,0,0,1.488,0l.749-.749A8.418,8.418,0,0,1,46.3,18.675Z" transform="translate(0.668)" fill="#3378e1"/>
  </g>
</svg>
