<svg id="healthcare-covid19-coronavirus-hand-hearth" xmlns="http://www.w3.org/2000/svg" width="96.379" height="96.835" viewBox="0 0 96.379 96.835">
  <path id="Tracé_2242" data-name="Tracé 2242" d="M46.051,15.477H41.193V10.619A1.619,1.619,0,0,0,39.573,9H33.1a1.619,1.619,0,0,0-1.619,1.619v4.858H26.619A1.619,1.619,0,0,0,25,17.1v6.477a1.619,1.619,0,0,0,1.619,1.619h4.858v4.858A1.619,1.619,0,0,0,33.1,31.67h6.477a1.619,1.619,0,0,0,1.619-1.619V25.193h4.858a1.619,1.619,0,0,0,1.619-1.619V17.1A1.619,1.619,0,0,0,46.051,15.477Zm-1.619,6.477H39.573a1.619,1.619,0,0,0-1.619,1.619v4.858H34.716V23.573A1.619,1.619,0,0,0,33.1,21.954H28.239V18.716H33.1A1.619,1.619,0,0,0,34.716,17.1V12.239h3.239V17.1a1.619,1.619,0,0,0,1.619,1.619h4.858Z" transform="translate(11.855 2.013)" fill="#fff"/>
  <path id="Tracé_2243" data-name="Tracé 2243" d="M76.283,21.154a7.417,7.417,0,0,0,.049-.858,6.509,6.509,0,0,0-5.149-6.331,6.592,6.592,0,0,0-7.611,4.809l-7.125,20.5a2.642,2.642,0,0,0-.308.146L41.825,47.808a14.6,14.6,0,0,0-7.206,12.566V75.627A1.619,1.619,0,0,0,33,77.246V90.2a1.619,1.619,0,0,0,1.619,1.619h22.67A1.619,1.619,0,0,0,58.908,90.2V77.246a1.619,1.619,0,0,0-1.619-1.619V72.064a4.921,4.921,0,0,1,1.619-3.627l10.946-9.732a7.985,7.985,0,0,0,2.461-3.967l7.028-26.281a6.4,6.4,0,0,0,.227-1.684,6.508,6.508,0,0,0-3.287-5.619Zm-9.618-1.425a3.422,3.422,0,0,1,3.854-2.591A3.239,3.239,0,0,1,73.093,20.3v.032a6.639,6.639,0,0,0-6.3,4.955L62.276,39.226a6.8,6.8,0,0,0-2.17-.615ZM55.67,88.581H36.239V78.865H55.67ZM76.218,27.615l-7.044,26.3a4.827,4.827,0,0,1-1.457,2.364L56.755,66.008a8.187,8.187,0,0,0-2.7,6.056v3.562H37.858V60.373a11.419,11.419,0,0,1,5.6-9.78l14.3-8.372A3.239,3.239,0,0,1,62.2,43.4a3.336,3.336,0,0,1,.324,2.461A3.239,3.239,0,0,1,61,47.824l-9.278,5.36a1.619,1.619,0,0,0,1.619,2.8l9.278-5.36a6.393,6.393,0,0,0,3.028-3.935A6.488,6.488,0,0,0,65,41.784l-.1-.146,5-15.432a3.422,3.422,0,0,1,3.854-2.591,3.239,3.239,0,0,1,2.575,3.158A2.789,2.789,0,0,1,76.218,27.615Z" transform="translate(16.809 5.015)" fill="#fff"/>
  <path id="Tracé_2244" data-name="Tracé 2244" d="M47.191,75.625V60.371a14.6,14.6,0,0,0-7.206-12.566L25.671,39.4c-.1-.049-.211-.081-.308-.13L18.287,18.885a6.65,6.65,0,0,0-7.659-4.923,6.509,6.509,0,0,0-5.149,6.331,7.413,7.413,0,0,0,.049.858A6.508,6.508,0,0,0,2.24,26.771a7.159,7.159,0,0,0,.211,1.684L9.494,54.72A7.96,7.96,0,0,0,11.956,58.7l10.93,9.732a4.877,4.877,0,0,1,1.635,3.627v3.562A1.619,1.619,0,0,0,22.9,77.244V90.2a1.619,1.619,0,0,0,1.619,1.619h22.67A1.619,1.619,0,0,0,48.81,90.2V77.244A1.619,1.619,0,0,0,47.191,75.625ZM8.717,20.294a3.239,3.239,0,0,1,2.558-3.158,3.5,3.5,0,0,1,3.919,2.7L21.7,38.608a6.8,6.8,0,0,0-2.17.615L15.048,25.362a6.718,6.718,0,0,0-6.331-5.036ZM25.039,66.006,14.093,56.274a4.8,4.8,0,0,1-1.457-2.38L5.576,27.613a3.435,3.435,0,0,1-.1-.842,3.239,3.239,0,0,1,2.558-3.158,3.472,3.472,0,0,1,3.9,2.672l4.971,15.351-.1.146a6.488,6.488,0,0,0-.648,4.906,6.393,6.393,0,0,0,3.028,3.935l9.278,5.36a1.619,1.619,0,0,0,1.619-2.8l-9.278-5.36a3.239,3.239,0,0,1-1.522-1.959,3.336,3.336,0,0,1,.324-2.461,3.239,3.239,0,0,1,4.421-1.2L38.35,50.591a11.419,11.419,0,0,1,5.6,9.78V75.625H27.76V72.062A8.145,8.145,0,0,0,25.039,66.006ZM45.572,88.579H26.14V78.863H45.572Z" transform="translate(-2.24 5.017)" fill="#fff"/>
  <path id="Tracé_2245" data-name="Tracé 2245" d="M65.478,6.949a16.183,16.183,0,0,0-22.907,0h0A16.19,16.19,0,1,0,19.664,29.837L41.427,51.6a1.619,1.619,0,0,0,2.29,0L65.48,29.837a16.2,16.2,0,0,0,0-22.888ZM42.57,48.166,21.952,27.547a12.954,12.954,0,0,1,9.17-22.108,12.818,12.818,0,0,1,9.154,3.8l1.15,1.15a1.619,1.619,0,0,0,2.29,0l1.153-1.153a12.95,12.95,0,0,1,18.32,18.308Z" transform="translate(5.619 -2.199)" fill="#fff"/>
</svg>
