<svg xmlns="http://www.w3.org/2000/svg" width="39.897" height="23.9" viewBox="0 0 39.897 23.9">
  <g id="Groupe_1889" data-name="Groupe 1889" transform="translate(0 29)">
    <path id="Tracé_2267" data-name="Tracé 2267" d="M29.539-12.08H20.249a1.7,1.7,0,0,1-1.8-.94,3.042,3.042,0,0,1,.468-3.221l2.874-3.624a2.56,2.56,0,0,0,0-3.624,2.662,2.662,0,0,0-3.609,0l-4.344,4.362a1.071,1.071,0,0,1-.735.336,7.5,7.5,0,0,0-3.408.805l-1.6.873.067-.537a.813.813,0,0,0-.2-.671.724.724,0,0,0-.6-.268H.8a.774.774,0,0,0-.8.805V-6.442a.774.774,0,0,0,.8.805H5.681a.8.8,0,0,0,.8-.671l.067-.6L15.972-5.3a13.2,13.2,0,0,0,2.339.2,13.505,13.505,0,0,0,4.01-.6,6.673,6.673,0,0,0,1.4-.671L30.007-10.6a.989.989,0,0,0,.334-.94A.83.83,0,0,0,29.539-12.08ZM1.6-7.248v-9.732H6.349l-1.4,9.732Zm21.185-.47a4.085,4.085,0,0,1-.936.47,12.214,12.214,0,0,1-5.614.335L6.817-8.523,7.752-15.1l2.673-1.342a6.064,6.064,0,0,1,2.673-.671,2.422,2.422,0,0,0,1.871-.805l4.344-4.362a.927.927,0,0,1,1.27,0,.959.959,0,0,1-.067,1.342l-2.94,3.691a4.678,4.678,0,0,0-.6,4.966A3.427,3.427,0,0,0,20.316-10.4H26.8ZM39.9-28.254V-15.5a.774.774,0,0,1-.8.805H20.049a.774.774,0,0,1-.8-.805.774.774,0,0,1,.8-.805H38.293V-27.382H16.641v4.3a.774.774,0,0,1-.8.805.774.774,0,0,1-.8-.805v-5.1a.774.774,0,0,1,.8-.805H39.1A.722.722,0,0,1,39.9-28.254Zm-8.153,6.376a4.316,4.316,0,0,0-4.277-4.3,4.316,4.316,0,0,0-4.277,4.3,4.316,4.316,0,0,0,4.277,4.3A4.316,4.316,0,0,0,31.744-21.878Zm-6.95,0A2.615,2.615,0,0,1,27.4-24.5a2.66,2.66,0,0,1,2.606,2.618A2.66,2.66,0,0,1,27.4-19.261,2.615,2.615,0,0,1,24.794-21.878Zm10.292,2.013v-4.161l-1.069-.537h-1.27a.774.774,0,0,1-.8-.805.774.774,0,0,1,.8-.805h1.47a.5.5,0,0,1,.334.067l1.671.873a.825.825,0,0,1,.468.738v5.1a.739.739,0,0,1-.4.671L34.618-17.65a.964.964,0,0,1-.468.134H32.68a.774.774,0,0,1-.8-.805.774.774,0,0,1,.8-.805h1.27Zm-12.1,1.544a.774.774,0,0,1-.8.805H21.92a.774.774,0,0,1-.8-.805.774.774,0,0,1,.8-.805h.267A.772.772,0,0,1,22.989-18.321Zm0-7.047a.774.774,0,0,1-.8.805l-1.4.067a.724.724,0,0,1-.334.067.78.78,0,0,1-.735-.47.784.784,0,0,1,.334-1.074l.334-.134a.724.724,0,0,1,.334-.067h1.47A.814.814,0,0,1,22.989-25.369Z" transform="translate(0 0)" fill="#3378e1" fill-rule="evenodd"/>
  </g>
</svg>
