<svg id="facebook" xmlns="http://www.w3.org/2000/svg" width="18.195" height="18.194" viewBox="0 0 18.195 18.194">
  <g id="Groupe_1872" data-name="Groupe 1872">
    <path id="Tracé_2246" data-name="Tracé 2246" d="M15.921,0H2.274A2.277,2.277,0,0,0,0,2.274V15.92a2.277,2.277,0,0,0,2.274,2.274H9.1V11.94H6.823V9.1H9.1V6.823a3.411,3.411,0,0,1,3.412-3.411h2.274V6.254H13.646c-.628,0-1.137-.059-1.137.569V9.1h2.843L14.215,11.94H12.509v6.254h3.412a2.277,2.277,0,0,0,2.274-2.274V2.274A2.277,2.277,0,0,0,15.921,0Z" fill="#3378e1"/>
  </g>
</svg>
