<svg id="linkedin" xmlns="http://www.w3.org/2000/svg" width="18.523" height="18.522" viewBox="0 0 18.523 18.522">
  <path id="Tracé_2248" data-name="Tracé 2248" d="M20.456,20.251h0V13.457c0-3.323-.715-5.883-4.6-5.883a4.033,4.033,0,0,0-3.633,2h-.054V7.884H8.489V20.25h3.836V14.127c0-1.612.306-3.171,2.3-3.171,1.967,0,2,1.84,2,3.275v6.021Z" transform="translate(-1.937 -1.729)" fill="#3378e1"/>
  <path id="Tracé_2249" data-name="Tracé 2249" d="M.4,7.977h3.84V20.343H.4Z" transform="translate(-0.09 -1.821)" fill="#3378e1"/>
  <path id="Tracé_2250" data-name="Tracé 2250" d="M2.224,0A2.235,2.235,0,1,0,4.449,2.224,2.225,2.225,0,0,0,2.224,0Z" fill="#3378e1"/>
</svg>
