<svg xmlns="http://www.w3.org/2000/svg" width="82.165" height="84.828" viewBox="0 0 82.165 84.828">
  <g id="generous" transform="translate(-8.035)">
    <path id="Tracé_2263" data-name="Tracé 2263" d="M76.22,340.73a4.233,4.233,0,0,0,.327-3.533,4.287,4.287,0,0,0-5.481-2.559l-.02.007-4.1,1.527a4.174,4.174,0,0,0-2.42-4.038,4.316,4.316,0,0,0-3.291-.143l-.018.006-7.633,2.846a4.022,4.022,0,0,0-2.294-3.778,4.118,4.118,0,0,0-3.179-.145L34.164,336.09c-.538-.2-1.036-.4-1.52-.606-3.133-1.306-5.463-2.029-11.43-.037a3.347,3.347,0,0,0-3.282-2.721H11.378a3.347,3.347,0,0,0-3.343,3.343V342.4a1.252,1.252,0,1,0,2.5,0v-6.333a.84.84,0,0,1,.839-.839h6.555a.85.85,0,0,1,.839.839v19.165a.85.85,0,0,1-.839.839H11.378a.84.84,0,0,1-.839-.839v-7.069a1.252,1.252,0,1,0-2.5,0v7.069a3.347,3.347,0,0,0,3.343,3.343h6.555a3.345,3.345,0,0,0,3.232-2.5,32.674,32.674,0,0,1,9.887,1.771l7.515,2.247a18.994,18.994,0,0,0,5.133.622,19.292,19.292,0,0,0,5.39-.678c3.849-1.189,9.975-3.524,12.4-4.51l14.984-6.1a4.063,4.063,0,0,0,2.325-2.573,5.329,5.329,0,0,0-.529-4.339,4.488,4.488,0,0,0-2.05-1.784ZM64.658,339.7a1.253,1.253,0,0,0,.167-.062L71.911,337a1.758,1.758,0,0,1,2.277,1.038,1.738,1.738,0,0,1-1.059,2.215l-.019.007-18.033,6.709a5.468,5.468,0,0,0-.128-1.178,5.124,5.124,0,0,0-.991-2.1Zm-2.571-5.352a1.828,1.828,0,0,1,1.385.056,1.7,1.7,0,0,1,.89.976,1.757,1.757,0,0,1-.619,1.988L51.3,342.006l-5.068-1.747ZM48.97,333.274a1.622,1.622,0,0,1,1.249.053,1.508,1.508,0,0,1,.78.862,1.552,1.552,0,0,1-.943,1.969c-.028.01-.055.022-.082.034l-7.462,2.783-4.623-1.594Zm27.447,12.8a1.6,1.6,0,0,1-.889,1.029l-14.983,6.1c-2.389.972-8.42,3.271-12.2,4.438a18.969,18.969,0,0,1-9.068.048l-7.512-2.246a35.085,35.085,0,0,0-10.494-1.874v-15.5c5.981-2.12,7.766-1.379,10.406-.279.641.267,19.231,6.724,19.231,6.724l.04.013a2.353,2.353,0,0,1,1.552,1.8,2.78,2.78,0,0,1-.282,2l-.009.016a2.323,2.323,0,0,1-.438.539c-.939.849-2.595.94-4.664.257L36.54,345.653a1.252,1.252,0,1,0-.784,2.378l10.57,3.487a10.384,10.384,0,0,0,3.251.577,5.614,5.614,0,0,0,3.877-1.355,4.784,4.784,0,0,0,.671-.75L72.5,343.154l.052-.017c1.237-.471,2.828-.538,3.586.692a2.8,2.8,0,0,1,.279,2.249Z" transform="translate(0 -275.885)" fill="#3378e1"/>
    <path id="Tracé_2264" data-name="Tracé 2264" d="M162.286,18.633,153.32,1.773A3.34,3.34,0,0,0,148.809.39l-5.773,3.068a3.336,3.336,0,0,0-1.421,4.414c-.619.334-1.186.643-1.708.928-4.6,2.512-5.991,3.27-12.206,4.01a1.252,1.252,0,0,0,.147,2.5A1.272,1.272,0,0,0,128,15.3c6.694-.8,8.441-1.751,13.109-4.3.514-.281,1.073-.585,1.68-.913l5.949,11.19a14.117,14.117,0,0,0-5.208,4.929c-2.09,3.39-4.665,4.7-7.155,5.959a26.947,26.947,0,0,0-3.328,1.894l-10.136,7.106a4.225,4.225,0,0,1-.785.384l-.064.021a1.888,1.888,0,0,1-1.07.084,1.793,1.793,0,0,1-1.053-.985c-.722-1.356.36-5.353,2.326-7.288l6.347-6.253c.026-.026.051-.053.075-.081a2.9,2.9,0,0,0,.8-2.96c-.393-1.078-1.532-1.782-3.385-2.093-5.276-.882-7.32.446-8.578,2.19a15.179,15.179,0,0,0-5.908-1.963l.135-.249c2.258-4.194,5.663-5.424,10.424-6.049a1.252,1.252,0,1,0-.326-2.483c-4.666.612-9.386,1.926-12.3,7.343l-.747,1.384a15.172,15.172,0,0,0-8.082,3.114,14.884,14.884,0,0,0-5.294,7.955,15.024,15.024,0,0,0,28.024,10.471,7.161,7.161,0,0,0,.812-.436l.056-.037,10.164-7.126A24.677,24.677,0,0,1,137.5,34.4c2.669-1.353,5.695-2.887,8.154-6.878a11.75,11.75,0,0,1,4.255-4.028l.715,1.344a3.341,3.341,0,0,0,4.51,1.376l5.765-3.067a3.339,3.339,0,0,0,1.382-4.511Zm-36.6,5.829a3.23,3.23,0,0,1,1.413.471,1.738,1.738,0,0,1-.291.45l-4.037,3.977a15.1,15.1,0,0,0-3.209-3.738c.763-1.046,2.064-1.838,6.123-1.159ZM106.667,49.239A12.525,12.525,0,1,1,120.93,31.177l-.423.417c-2.449,2.408-4.235,7.517-2.78,10.249a4.19,4.19,0,0,0,2.614,2.227l.024.005a12.513,12.513,0,0,1-13.7,5.163Zm53.467-28.8a.826.826,0,0,1-.4.493L153.964,24a.834.834,0,0,1-1.125-.34L143.872,6.792a.842.842,0,0,1,.341-1.123L149.986,2.6a.813.813,0,0,1,.383-.1.846.846,0,0,1,.248.037.825.825,0,0,1,.493.4l8.966,16.862h0A.823.823,0,0,1,160.134,20.44Z" transform="translate(-72.476 0)" fill="#bc412b"/>
  </g>
</svg>
