<svg id="twitter" xmlns="http://www.w3.org/2000/svg" width="20.822" height="16.917" viewBox="0 0 20.822 16.917">
  <g id="Groupe_1873" data-name="Groupe 1873" transform="translate(0 0)">
    <path id="Tracé_2247" data-name="Tracé 2247" d="M20.822,50a8.9,8.9,0,0,1-2.46.674,4.245,4.245,0,0,0,1.878-2.359,8.531,8.531,0,0,1-2.707,1.033A4.268,4.268,0,0,0,10.15,52.27a4.4,4.4,0,0,0,.1.973,12.083,12.083,0,0,1-8.8-4.465,4.27,4.27,0,0,0,1.312,5.705,4.216,4.216,0,0,1-1.929-.526V54A4.288,4.288,0,0,0,4.253,58.2a4.261,4.261,0,0,1-1.119.141,3.774,3.774,0,0,1-.808-.073A4.309,4.309,0,0,0,6.314,61.24,8.577,8.577,0,0,1,1.022,63.06,8,8,0,0,1,0,63a12.018,12.018,0,0,0,6.549,1.916A12.066,12.066,0,0,0,18.7,52.771c0-.189-.007-.371-.016-.552A8.516,8.516,0,0,0,20.822,50Z" transform="translate(0 -48)" fill="#3378e1"/>
  </g>
</svg>
