<svg xmlns="http://www.w3.org/2000/svg" width="77" height="72.561" viewBox="0 0 77 72.561">
  <g id="warning_1_" data-name="warning (1)" transform="translate(0 -14.759)">
    <g id="Groupe_1882" data-name="Groupe 1882" transform="translate(0 14.759)">
      <path id="Tracé_2251" data-name="Tracé 2251" d="M75.4,70.282l-27.2-50a11.281,11.281,0,0,0-19.4,0l-27.2,50A11.274,11.274,0,0,0,11.3,87.32H65.7A11.276,11.276,0,0,0,75.4,70.282ZM38.5,78.3a4.512,4.512,0,1,1,4.512-4.512A4.518,4.518,0,0,1,38.5,78.3Zm4.512-18.047a4.512,4.512,0,0,1-9.023,0V37.691a4.512,4.512,0,0,1,9.023,0Z" transform="translate(0 -14.759)" fill="#bc412b"/>
    </g>
  </g>
</svg>
