<svg xmlns="http://www.w3.org/2000/svg" width="28.065" height="28.062" viewBox="0 0 28.065 28.062">
  <defs>
    <style>
      .cls-1 {
        fill: #fff;
      }
    </style>
  </defs>
  <path id="add-group" class="cls-1" d="M16.252,18.9a10.408,10.408,0,0,0-2.187-1.167,5.58,5.58,0,0,0,1.815-3.681,8.251,8.251,0,0,1,10.463-.856,1.1,1.1,0,1,0,1.254-1.8,10.419,10.419,0,0,0-2.187-1.167,5.59,5.59,0,1,0-7.527-.012q-.23.088-.456.188A10.41,10.41,0,0,0,15.5,11.511a5.59,5.59,0,1,0-8.968,6.2A10.542,10.542,0,0,0,.163,24.266a3.289,3.289,0,0,0,3.131,4.3H12.83a1.1,1.1,0,0,0,0-2.192H3.293a1.1,1.1,0,0,1-1.044-1.432,8.458,8.458,0,0,1,8.035-5.721A8.2,8.2,0,0,1,15,20.694a1.1,1.1,0,1,0,1.254-1.8Zm5.4-16.2a3.4,3.4,0,1,1-3.4,3.4A3.4,3.4,0,0,1,21.654,2.692Zm-11.345,7.5a3.4,3.4,0,1,1-3.4,3.4A3.4,3.4,0,0,1,10.309,10.194ZM28.067,23.355a1.1,1.1,0,0,1-1.1,1.1H23.956v3.014a1.1,1.1,0,1,1-2.192,0V24.451H18.749a1.1,1.1,0,0,1,0-2.192h3.014V19.244a1.1,1.1,0,0,1,2.192,0v3.014H26.97A1.1,1.1,0,0,1,28.067,23.355Zm0,0" transform="translate(-0.001 -0.5)"/>
</svg>
