<svg xmlns="http://www.w3.org/2000/svg" width="54" height="61.293" viewBox="0 0 54 61.293">
  <defs>
    <style>
      .cls-1 {
        fill: #29235c;
      }
    </style>
  </defs>
  <g id="save-money_1_" data-name="save-money (1)" transform="translate(-0.36)">
    <path id="Tracé_2002" data-name="Tracé 2002" class="cls-1" d="M190.415,161.977a.957.957,0,0,0-.345-.012,2.286,2.286,0,0,1-2.022-2.267,1.005,1.005,0,0,0-2.011,0,4.3,4.3,0,0,0,3.162,4.141v1.005a1.005,1.005,0,0,0,2.011,0V163.9a4.293,4.293,0,0,0-.88-8.5,2.283,2.283,0,1,1,2.283-2.283,1.005,1.005,0,0,0,2.011,0,4.3,4.3,0,0,0-3.414-4.2v-.915a1.005,1.005,0,1,0-2.011,0v.976a4.293,4.293,0,0,0,1.131,8.434,2.281,2.281,0,0,1,.083,4.561Zm0,0" transform="translate(-162.344 -128.526)"/>
    <path id="Tracé_2003" data-name="Tracé 2003" class="cls-1" d="M104.2,121.071a14.579,14.579,0,1,0,14.579-14.579A14.579,14.579,0,0,0,104.2,121.071ZM118.774,108.5a12.568,12.568,0,1,1-12.568,12.568A12.568,12.568,0,0,1,118.774,108.5Zm0,0" transform="translate(-90.786 -93.109)"/>
    <path id="Tracé_2004" data-name="Tracé 2004" class="cls-1" d="M47.523,330.362l-7.876,3.721a6.415,6.415,0,0,0-5.469-3.374l-7.27-.2a7.679,7.679,0,0,1-3.3-.853l-.74-.383a13.049,13.049,0,0,0-12.087.013l.046-1.676a1,1,0,0,0-.977-1.033l-7.972-.219a1,1,0,0,0-1.032.977L.361,344.829a1,1,0,0,0,.977,1.033l7.972.219h.027a1,1,0,0,0,1.005-.978l.023-.837,2.071-1.109a3.553,3.553,0,0,1,2.651-.29l12.368,3.471c.022.006.043.011.065.016a13.241,13.241,0,0,0,2.718.28,13.414,13.414,0,0,0,5.6-1.223.938.938,0,0,0,.125-.069l17.932-11.6a1.006,1.006,0,0,0,.329-1.339A5.079,5.079,0,0,0,47.523,330.362ZM2.4,343.88l.426-15.485,5.962.164L8.36,344.044Zm32.54-.263a11.4,11.4,0,0,1-6.971.778l-12.335-3.462a5.559,5.559,0,0,0-4.144.453l-1.058.567.283-10.3a11.051,11.051,0,0,1,11.227-.6l.74.383a9.71,9.71,0,0,0,4.174,1.078l7.271.2a4.41,4.41,0,0,1,4.191,3.514l-10.83-.3a1.006,1.006,0,1,0-.055,2.01l11.952.329h.028a1.006,1.006,0,0,0,1-.978,6.381,6.381,0,0,0-.1-1.3l8.078-3.817.024-.011a3.072,3.072,0,0,1,3.474.487Zm0,0" transform="translate(0 -285.342)"/>
    <path id="Tracé_2005" data-name="Tracé 2005" class="cls-1" d="M214.214,10.556V1.005a1.005,1.005,0,1,0-2.011,0v9.551a1.005,1.005,0,1,0,2.011,0Zm0,0" transform="translate(-185.22)"/>
    <path id="Tracé_2006" data-name="Tracé 2006" class="cls-1" d="M274.214,45.53V41.005a1.005,1.005,0,0,0-2.011,0V45.53a1.005,1.005,0,0,0,2.011,0Zm0,0" transform="translate(-237.68 -34.973)"/>
    <path id="Tracé_2007" data-name="Tracé 2007" class="cls-1" d="M154.214,45.53V41.005a1.005,1.005,0,1,0-2.011,0V45.53a1.005,1.005,0,0,0,2.011,0Zm0,0" transform="translate(-132.761 -34.973)"/>
  </g>
</svg>
