<svg xmlns="http://www.w3.org/2000/svg" width="35.702" height="35.702" viewBox="0 0 35.702 35.702">
  <defs>
    <style>
      .cls-1 {
        opacity: 0.4;
      }

      .cls-2 {
        stroke: #000;
        stroke-width: 0.25px;
      }

      .cls-3 {
        fill: #fff;
      }
    </style>
  </defs>
  <g id="Groupe_21" data-name="Groupe 21" class="cls-1" transform="translate(0.125 0.125)">
    <g id="Groupe_1074" data-name="Groupe 1074" transform="translate(0)">
      <g id="Groupe_1069" data-name="Groupe 1069">
        <g id="Groupe_1068" data-name="Groupe 1068">
          <path id="Tracé_780" data-name="Tracé 780" class="cls-2" d="M17.726,0A17.726,17.726,0,1,0,35.452,17.726,17.746,17.746,0,0,0,17.726,0Zm0,33.911A16.185,16.185,0,1,1,33.911,17.726,16.2,16.2,0,0,1,17.726,33.911Z"/>
        </g>
      </g>
      <g id="Groupe_1071" data-name="Groupe 1071" transform="translate(7.707 16.955)">
        <g id="Groupe_1070" data-name="Groupe 1070">
          <path id="Tracé_781" data-name="Tracé 781" class="cls-2" d="M116.685,234.667a10.031,10.031,0,0,0-10.019,10.019.771.771,0,1,0,1.541,0,8.478,8.478,0,1,1,16.955,0,.771.771,0,0,0,1.541,0A10.031,10.031,0,0,0,116.685,234.667Z" transform="translate(-106.666 -234.667)"/>
        </g>
      </g>
      <g id="Groupe_1073" data-name="Groupe 1073" transform="translate(12.331 4.624)">
        <g id="Groupe_1072" data-name="Groupe 1072">
          <path id="Tracé_782" data-name="Tracé 782" class="cls-2" d="M176.061,64a5.395,5.395,0,1,0,5.395,5.395A5.4,5.4,0,0,0,176.061,64Zm0,9.248a3.853,3.853,0,1,1,3.853-3.853A3.859,3.859,0,0,1,176.061,73.248Z" transform="translate(-170.666 -64)"/>
        </g>
      </g>
    </g>
    <circle id="Ellipse_18" data-name="Ellipse 18" class="cls-3" cx="2" cy="2" r="2" transform="translate(22.711 19.288)"/>
  </g>
</svg>
