<svg xmlns="http://www.w3.org/2000/svg" width="81.691" height="79.985" viewBox="0 0 81.691 79.985">
  <g id="Groupe_1899" data-name="Groupe 1899" transform="translate(0 45)">
    <path id="Tracé_2270" data-name="Tracé 2270" d="M18.71-5.079a8.387,8.387,0,0,0,3.376-6.71v-3.489A8.923,8.923,0,0,0,12.942-24,8.923,8.923,0,0,0,3.8-15.277v3.489a8.808,8.808,0,0,0,3.376,6.71A12.245,12.245,0,0,0,0,5.791v9.394A2.907,2.907,0,0,0,2.954,18H22.649A2.9,2.9,0,0,0,25.6,15.184V5.791A11.745,11.745,0,0,0,18.71-5.079ZM7.315-11.789v-3.489a5.664,5.664,0,0,1,5.768-5.5,5.666,5.666,0,0,1,5.768,5.5v3.489a5.664,5.664,0,0,1-5.768,5.5A5.753,5.753,0,0,1,7.315-11.789ZM22.368,14.916H3.517V5.925a9.216,9.216,0,0,1,9.425-8.991,9.216,9.216,0,0,1,9.425,8.991Z" transform="translate(0 16.983)" fill="#6f96aa" fill-rule="evenodd"/>
    <path id="Tracé_2271" data-name="Tracé 2271" d="M49.71-26.079a8.387,8.387,0,0,0,3.376-6.71v-3.489A8.923,8.923,0,0,0,43.942-45,8.923,8.923,0,0,0,34.8-36.277v3.489a8.808,8.808,0,0,0,3.376,6.71A12.245,12.245,0,0,0,31-15.209v9.394A2.906,2.906,0,0,0,33.954-3H53.649A2.9,2.9,0,0,0,56.6-5.815v-9.394C56.885-20.04,53.93-24.066,49.71-26.079ZM38.315-32.922v-3.489a5.664,5.664,0,0,1,5.768-5.5,5.578,5.578,0,0,1,5.768,5.5v3.489a5.664,5.664,0,0,1-5.768,5.5A5.578,5.578,0,0,1,38.315-32.922Zm15.052,26.7H34.517v-8.991A9.217,9.217,0,0,1,43.942-24.2a9.217,9.217,0,0,1,9.425,8.991Z" transform="translate(25.07)" fill="#6f96aa" fill-rule="evenodd"/>
    <path id="Tracé_2272" data-name="Tracé 2272" d="M7.522-12.053H41.71a6.272,6.272,0,0,0,6.428-6.12v-4.819l7.932-4.167a1.483,1.483,0,0,0,.82-1.432,1.6,1.6,0,0,0-.957-1.433L48-33.67v-5.209A6.273,6.273,0,0,0,41.574-45H6.427A6.272,6.272,0,0,0,0-38.879v19.794A7.4,7.4,0,0,0,7.522-12.053ZM3.556-38.879a2.966,2.966,0,0,1,3.009-2.865H41.71a2.966,2.966,0,0,1,3.009,2.865v6.25a1.6,1.6,0,0,0,.957,1.433l5.88,2.735L45.54-25.336a1.483,1.483,0,0,0-.821,1.433v5.73a2.966,2.966,0,0,1-3.009,2.865H7.522a4.021,4.021,0,0,1-4.1-3.907V-38.879Z" fill="#6f96aa" fill-rule="evenodd"/>
    <path id="Tracé_2273" data-name="Tracé 2273" d="M63.916-19H29.043a6.217,6.217,0,0,0-6.291,5.991V-7.8l-7.8,3.646A1.6,1.6,0,0,0,14-2.722a1.483,1.483,0,0,0,.821,1.433l7.795,4.167V7.7a6.217,6.217,0,0,0,6.291,5.991H62.685A7.185,7.185,0,0,0,70.07,6.654V-12.88A5.877,5.877,0,0,0,63.916-19ZM66.924,6.525A3.878,3.878,0,0,1,62.959,10.3H29.18a2.966,2.966,0,0,1-3.008-2.865V1.706A1.617,1.617,0,0,0,25.351.273L19.47-2.852l5.88-2.735a1.6,1.6,0,0,0,.957-1.433v-6.12A2.965,2.965,0,0,1,29.317-16h34.6a2.966,2.966,0,0,1,3.009,2.865Z" transform="translate(11.322 21.026)" fill="#6f96aa" fill-rule="evenodd"/>
    <path id="Tracé_2274" data-name="Tracé 2274" d="M8.859-30.283a3.809,3.809,0,0,0,3.859-3.859A3.809,3.809,0,0,0,8.859-38,3.809,3.809,0,0,0,5-34.142,3.885,3.885,0,0,0,8.859-30.283Zm0-4.823a.951.951,0,0,1,.965.964.951.951,0,0,1-.965.965.951.951,0,0,1-.965-.965A.951.951,0,0,1,8.859-35.106Z" transform="translate(4.043 5.661)" fill="#6f96aa" fill-rule="evenodd"/>
    <path id="Tracé_2275" data-name="Tracé 2275" d="M15.823-30.283c2.713,0,4.823-1.688,4.823-3.859S18.536-38,15.823-38,11-36.312,11-34.142C11-32.092,13.11-30.283,15.823-30.283Zm0-4.823a1.1,1.1,0,0,1,1.206.964,1.084,1.084,0,0,1-1.206.965,1.1,1.1,0,0,1-1.206-.965A1.329,1.329,0,0,1,15.823-35.106Z" transform="translate(8.896 5.661)" fill="#6f96aa" fill-rule="evenodd"/>
    <path id="Tracé_2276" data-name="Tracé 2276" d="M21.859-30.283a3.809,3.809,0,0,0,3.858-3.859A3.809,3.809,0,0,0,21.859-38,3.809,3.809,0,0,0,18-34.142,3.885,3.885,0,0,0,21.859-30.283Zm0-4.823a.951.951,0,0,1,.965.964.951.951,0,0,1-.965.965.888.888,0,0,1-.965-.965A.951.951,0,0,1,21.859-35.106Z" transform="translate(14.556 5.661)" fill="#6f96aa" fill-rule="evenodd"/>
    <path id="Tracé_2277" data-name="Tracé 2277" d="M33.19-13.262c1.266,0,2.171-.6,2.171-1.447v-.844c0-.844-.9-1.447-2.171-1.447s-2.17.6-2.17,1.447v.844C30.839-13.985,31.924-13.262,33.19-13.262Z" transform="translate(25.07 22.643)" fill="#6f96aa" fill-rule="evenodd"/>
    <path id="Tracé_2278" data-name="Tracé 2278" d="M33.17-6A2.09,2.09,0,0,0,31-3.829v1.266A2.09,2.09,0,0,0,33.17-.393a2.09,2.09,0,0,0,2.171-2.171V-3.829A2.334,2.334,0,0,0,33.17-6Z" transform="translate(25.07 31.539)" fill="#6f96aa" fill-rule="evenodd"/>
    <path id="Tracé_2279" data-name="Tracé 2279" d="M37.989-8.5H33.052a.933.933,0,0,1-.886-1.013.933.933,0,0,1,.886-1.013H40.4a1.577,1.577,0,0,0,1.519-1.737A1.577,1.577,0,0,0,40.4-14H33.052A4.4,4.4,0,0,0,29-9.37c0,2.46,1.773,4.631,4.052,4.631h4.938a.933.933,0,0,1,.886,1.012.933.933,0,0,1-.886,1.013h-7.47A1.578,1.578,0,0,0,29-.977,1.577,1.577,0,0,0,30.519.759h7.47a4.4,4.4,0,0,0,4.052-4.63A4.4,4.4,0,0,0,37.989-8.5Z" transform="translate(23.452 25.07)" fill="#6f96aa" fill-rule="evenodd"/>
  </g>
</svg>
