<svg xmlns="http://www.w3.org/2000/svg" width="35.154" height="34.397" viewBox="0 0 35.154 34.397">
  <g id="Groupe_1890" data-name="Groupe 1890" transform="translate(0 47)">
    <path id="Tracé_2268" data-name="Tracé 2268" d="M28.36-21.342a3.1,3.1,0,0,0-3.249-.718L20.265-20.2l-1.418-1.616a2.767,2.767,0,0,0-1.831-.958l-9.867-1.2.118-.718a.73.73,0,0,0-.177-.6.638.638,0,0,0-.532-.239H.709A.687.687,0,0,0,0-24.813v10.235a.687.687,0,0,0,.709.718H5.081a.7.7,0,0,0,.709-.6l.059-.6L14-12.723a2.892,2.892,0,0,0,1,.12,3.427,3.427,0,0,0,1.359-.239L29.9-18.349a.638.638,0,0,0,.414-.539.681.681,0,0,0-.177-.658ZM1.418-15.356v-8.8H5.731l-1.241,8.8Zm14.475,1.137a2.1,2.1,0,0,1-1.477.06L6.086-16.553,6.913-22.6l9.926,1.2a1.792,1.792,0,0,1,.945.479l1.063,1.2-2.9,1.077a2.092,2.092,0,0,1-1.477,0l-3.368-1.137a.686.686,0,0,0-.886.479.7.7,0,0,0,.473.9l3.368,1.137a3.544,3.544,0,0,0,2.481-.06l3.9-1.5h0l5.317-2.035a1.653,1.653,0,0,1,1.713.359l1.064,1.077ZM34.445-46.54H30.073a.7.7,0,0,0-.709.6L29.3-45.4,20.974-46.84a12.766,12.766,0,0,0-5.613.359,3.934,3.934,0,0,0-1.241.6L8.567-42.111a.886.886,0,0,0-.3.838.765.765,0,0,0,.709.539h8.213a1.5,1.5,0,0,1,1.6.838,2.72,2.72,0,0,1-.355,2.813l-2.541,3.232a2.328,2.328,0,0,0-.65,1.616,2.328,2.328,0,0,0,.65,1.616,2.268,2.268,0,0,0,1.6.658,2.268,2.268,0,0,0,1.6-.658l3.84-3.89a.943.943,0,0,1,.65-.3,6.578,6.578,0,0,0,3.013-.718l1.418-.778-.059.479a.729.729,0,0,0,.177.6.638.638,0,0,0,.532.239h5.79a.687.687,0,0,0,.709-.718V-45.822A.723.723,0,0,0,34.445-46.54Zm-8.508,9.756a5.323,5.323,0,0,1-2.363.6,2.133,2.133,0,0,0-1.654.718l-3.84,3.891a.814.814,0,0,1-1.123,0,.774.774,0,0,1-.236-.6.838.838,0,0,1,.3-.658l2.6-3.292a4.2,4.2,0,0,0,.532-4.429,2.976,2.976,0,0,0-2.954-1.676H11.462l3.6-2.394a3.594,3.594,0,0,1,.827-.419,10.708,10.708,0,0,1,4.963-.3l8.331,1.437-.827,5.866Zm7.8.359H29.541L30.782-45.1H33.8v8.679ZM5.79-27.148V-38.52a.687.687,0,0,1,.709-.718h8.567a.687.687,0,0,1,.709.718.687.687,0,0,1-.709.718H7.208v9.876H26.351v-5.507a.687.687,0,0,1,.709-.718.687.687,0,0,1,.709.718v6.225a.687.687,0,0,1-.709.718H6.5A.672.672,0,0,1,5.79-27.148Zm4.254-7.482v3.711l.945.479h1.123a.687.687,0,0,1,.709.718.687.687,0,0,1-.709.718h-1.3a.438.438,0,0,1-.3-.06L9.04-29.841a.737.737,0,0,1-.413-.658v-4.549a.66.66,0,0,1,.354-.6l1.477-.958a.846.846,0,0,1,.414-.12h1.3a.687.687,0,0,1,.709.718.687.687,0,0,1-.709.718H11.048ZM21.388-29a.687.687,0,0,1-.709-.718.687.687,0,0,1,.709-.718H22.51l.945-.479v-2.514a.687.687,0,0,1,.709-.718.687.687,0,0,1,.709.718V-30.5a.737.737,0,0,1-.414.658l-1.477.778a.634.634,0,0,1-.3.06Zm-5.14-6.943a.725.725,0,0,1-.355.958,2.365,2.365,0,0,0-1.418,2.155.687.687,0,0,1-.709.718.687.687,0,0,1-.709-.718A3.8,3.8,0,0,1,15.3-36.305.664.664,0,0,1,16.248-35.946Z" fill="#3378e1" fill-rule="evenodd"/>
  </g>
</svg>
