<svg xmlns="http://www.w3.org/2000/svg" width="29.377" height="29.817" viewBox="0 0 29.377 29.817">
  <g id="Groupe_1891" data-name="Groupe 1891" transform="translate(0 48)">
    <path id="Tracé_2269" data-name="Tracé 2269" d="M23.609-29.185a2.4,2.4,0,0,0,.6-1.557,2.332,2.332,0,0,0-2.3-2.311H15.356l.9-2.612c0-.05.05-.151.05-.2v-1.055a4.5,4.5,0,0,0-1-2.813,4.568,4.568,0,0,0-3.6-1.758h-.45a.579.579,0,0,0-.6.6v4.27L8-30.542H6.5l-.05-.5a.6.6,0,0,0-.6-.5H.6a.579.579,0,0,0-.6.6v12.158a.579.579,0,0,0,.6.6h7a.633.633,0,0,0,.45-.2.852.852,0,0,0,.15-.5l1.05.553a.632.632,0,0,0,.3.05H20.508a2.332,2.332,0,0,0,2.3-2.311,2.246,2.246,0,0,0-.4-1.306,2.28,2.28,0,0,0,1.351-2.11,2.247,2.247,0,0,0-.4-1.306,2.3,2.3,0,0,0,1.3-2.06A2.607,2.607,0,0,0,23.609-29.185ZM1.2-19.338V-30.29H5.3l.05.352v.151L6.8-19.841h0l.05.452Zm21.058-6.883H20.608a.579.579,0,0,0-.6.6h0a.579.579,0,0,0,.6.6h.75a1.113,1.113,0,0,1,1.1,1.105,1.113,1.113,0,0,1-1.1,1.105h-1.35a.579.579,0,0,0-.6.6h0a.579.579,0,0,0,.6.6h.4a1.113,1.113,0,0,1,1.1,1.105,1.113,1.113,0,0,1-1.1,1.105H9.6l-1.7-.9-1.25-8.943H8.4a.615.615,0,0,0,.55-.352L11.8-36.169a.455.455,0,0,0,.05-.251v-3.818a3.365,3.365,0,0,1,2.451,1.256,3.413,3.413,0,0,1,.7,2.06v.955l-1.1,3.316a.549.549,0,0,0,.1.553.614.614,0,0,0,.5.251h7.4a1.113,1.113,0,0,1,1.1,1.105,1.113,1.113,0,0,1-1.1,1.105h-1.5a.579.579,0,0,0-.6.6.579.579,0,0,0,.6.6h1.9a1.113,1.113,0,0,1,1.1,1.105A1.193,1.193,0,0,1,22.258-26.221Zm7.1-17.634a.6.6,0,0,0-.6-.4H25.209l-1.1-3.366a.627.627,0,0,0-1.15,0l-1.1,3.366H18.307a.65.65,0,0,0-.6.4.623.623,0,0,0,.2.7l2.851,2.06-1.1,3.366a.623.623,0,0,0,.2.7.6.6,0,0,0,.7,0l2.851-2.06,2.851,2.06a.474.474,0,0,0,.35.1.719.719,0,0,0,.35-.1.623.623,0,0,0,.2-.7l-1.1-3.366,2.851-2.06C29.361-43.353,29.411-43.6,29.361-43.855Zm-4.152,2.01a.623.623,0,0,0-.2.7l.65,2.01-1.7-1.256a.6.6,0,0,0-.7,0l-1.7,1.256.65-2.01a.623.623,0,0,0-.2-.7l-1.7-1.256h2.1a.65.65,0,0,0,.6-.4l.65-2.01.65,2.01a.6.6,0,0,0,.6.4h2.1Z" transform="translate(0 0)" fill="#3378e1" fill-rule="evenodd"/>
  </g>
</svg>
