<svg xmlns="http://www.w3.org/2000/svg" width="16.197" height="16.197" viewBox="0 0 16.197 16.197">
  <defs>
    <style>
      .cls-1 {
        opacity: 0.4;
      }

      .cls-2 {
        fill: #00173f;
      }
    </style>
  </defs>
  <g id="Groupe_1567" data-name="Groupe 1567" class="cls-1" transform="translate(-506 -224)">
    <g id="calendar_1_" data-name="calendar (1)" transform="translate(506 224)">
      <g id="Groupe_1323" data-name="Groupe 1323">
        <g id="Groupe_1322" data-name="Groupe 1322">
          <path id="Tracé_1512" data-name="Tracé 1512" class="cls-2" d="M14.3,1.265H13.54V0H12.274V1.265H3.923V0H2.657V1.265H1.9A1.9,1.9,0,0,0,0,3.164V14.3a1.9,1.9,0,0,0,1.9,1.9H14.3a1.9,1.9,0,0,0,1.9-1.9V3.164A1.9,1.9,0,0,0,14.3,1.265ZM14.932,14.3a.633.633,0,0,1-.633.633H1.9a.633.633,0,0,1-.633-.633V5.947H14.932Zm0-9.617H1.265V3.164A.633.633,0,0,1,1.9,2.531h.759V3.8H3.923V2.531h8.352V3.8H13.54V2.531H14.3a.633.633,0,0,1,.633.633Z"/>
        </g>
      </g>
      <g id="Groupe_1325" data-name="Groupe 1325" transform="translate(2.247 7.448)">
        <g id="Groupe_1324" data-name="Groupe 1324" transform="translate(0 0)">
          <rect id="Rectangle_2058" data-name="Rectangle 2058" class="cls-2" width="1.3" height="1.3" transform="translate(0)"/>
        </g>
      </g>
      <g id="Groupe_1327" data-name="Groupe 1327" transform="translate(4.848 7.448)">
        <g id="Groupe_1326" data-name="Groupe 1326" transform="translate(0 0)">
          <rect id="Rectangle_2059" data-name="Rectangle 2059" class="cls-2" width="1.3" height="1.3" transform="translate(0)"/>
        </g>
      </g>
      <g id="Groupe_1329" data-name="Groupe 1329" transform="translate(7.448 7.448)">
        <g id="Groupe_1328" data-name="Groupe 1328" transform="translate(0 0)">
          <rect id="Rectangle_2060" data-name="Rectangle 2060" class="cls-2" width="1.3" height="1.3" transform="translate(0)"/>
        </g>
      </g>
      <g id="Groupe_1331" data-name="Groupe 1331" transform="translate(10.049 7.448)">
        <g id="Groupe_1330" data-name="Groupe 1330" transform="translate(0 0)">
          <rect id="Rectangle_2061" data-name="Rectangle 2061" class="cls-2" width="1.3" height="1.3"/>
        </g>
      </g>
      <g id="Groupe_1333" data-name="Groupe 1333" transform="translate(12.65 7.448)">
        <g id="Groupe_1332" data-name="Groupe 1332" transform="translate(0 0)">
          <rect id="Rectangle_2062" data-name="Rectangle 2062" class="cls-2" width="1.3" height="1.3"/>
        </g>
      </g>
      <g id="Groupe_1335" data-name="Groupe 1335" transform="translate(2.247 10.049)">
        <g id="Groupe_1334" data-name="Groupe 1334" transform="translate(0 0)">
          <rect id="Rectangle_2063" data-name="Rectangle 2063" class="cls-2" width="1.3" height="1.3" transform="translate(0 0)"/>
        </g>
      </g>
      <g id="Groupe_1337" data-name="Groupe 1337" transform="translate(4.848 10.049)">
        <g id="Groupe_1336" data-name="Groupe 1336" transform="translate(0 0)">
          <rect id="Rectangle_2064" data-name="Rectangle 2064" class="cls-2" width="1.3" height="1.3" transform="translate(0 0)"/>
        </g>
      </g>
      <g id="Groupe_1339" data-name="Groupe 1339" transform="translate(7.448 10.049)">
        <g id="Groupe_1338" data-name="Groupe 1338" transform="translate(0 0)">
          <rect id="Rectangle_2065" data-name="Rectangle 2065" class="cls-2" width="1.3" height="1.3" transform="translate(0 0)"/>
        </g>
      </g>
      <g id="Groupe_1341" data-name="Groupe 1341" transform="translate(10.049 10.049)">
        <g id="Groupe_1340" data-name="Groupe 1340" transform="translate(0 0)">
          <rect id="Rectangle_2066" data-name="Rectangle 2066" class="cls-2" width="1.3" height="1.3" transform="translate(0 0)"/>
        </g>
      </g>
      <g id="Groupe_1343" data-name="Groupe 1343" transform="translate(2.247 12)">
        <g id="Groupe_1342" data-name="Groupe 1342" transform="translate(0 0)">
          <rect id="Rectangle_2067" data-name="Rectangle 2067" class="cls-2" width="1.3" height="1.951" transform="translate(0 0)"/>
        </g>
      </g>
      <g id="Groupe_1345" data-name="Groupe 1345" transform="translate(4.848 12)">
        <g id="Groupe_1344" data-name="Groupe 1344" transform="translate(0 0)">
          <rect id="Rectangle_2068" data-name="Rectangle 2068" class="cls-2" width="1.3" height="1.951" transform="translate(0 0)"/>
        </g>
      </g>
      <g id="Groupe_1347" data-name="Groupe 1347" transform="translate(7.448 12)">
        <g id="Groupe_1346" data-name="Groupe 1346" transform="translate(0 0)">
          <rect id="Rectangle_2069" data-name="Rectangle 2069" class="cls-2" width="1.3" height="1.951" transform="translate(0 0)"/>
        </g>
      </g>
      <g id="Groupe_1349" data-name="Groupe 1349" transform="translate(10.049 12)">
        <g id="Groupe_1348" data-name="Groupe 1348" transform="translate(0 0)">
          <rect id="Rectangle_2070" data-name="Rectangle 2070" class="cls-2" width="1.3" height="1.951" transform="translate(0 0)"/>
        </g>
      </g>
      <g id="Groupe_1351" data-name="Groupe 1351" transform="translate(12.65 10.049)">
        <g id="Groupe_1350" data-name="Groupe 1350" transform="translate(0 0)">
          <rect id="Rectangle_2071" data-name="Rectangle 2071" class="cls-2" width="1.3" height="1.3" transform="translate(0 0)"/>
        </g>
      </g>
    </g>
  </g>
</svg>
