<svg xmlns="http://www.w3.org/2000/svg" xmlns:xlink="http://www.w3.org/1999/xlink" version="1.1" width="256" height="256" viewBox="0 0 256 256" xml:space="preserve">
<desc>Created with Fabric.js 1.7.22</desc>
<defs>
</defs>
<g transform="translate(128 128) scale(0.72 0.72)" style="">
	<g style="stroke: none; stroke-width: 0; stroke-dasharray: none; stroke-linecap: butt; stroke-linejoin: miter; stroke-miterlimit: 10; fill: none; fill-rule: nonzero; opacity: 1;" transform="translate(-175.05 -175.05000000000004) scale(3.89 3.89)" >
	<path d="M 26.664 90 h 36.672 c 9.978 -1.622 16.631 -6.139 16.631 -18.725 c 0 -15.77 -10.44 -38.393 -24.785 -46.163 l 7.009 -23.786 c -11.067 -5.429 -21.654 8.099 -34.384 0 l 7.009 23.786 c -14.345 7.77 -24.785 30.393 -24.785 46.163 C 10.033 83.861 16.686 88.378 26.664 90 z" style="stroke: none; stroke-width: 1; stroke-dasharray: none; stroke-linecap: butt; stroke-linejoin: miter; stroke-miterlimit: 10; fill: rgb(252,252,252); fill-rule: nonzero; opacity: 1;" transform=" matrix(1 0 0 1 0 0) " stroke-linecap="round" />
	<path d="M 63.336 90 c 9.978 -1.622 16.631 -6.139 16.631 -18.725 c 0 -15.77 -10.44 -38.393 -24.785 -46.163 l 7.009 -23.786 c -2.586 -1.269 -5.147 -1.495 -7.714 -1.211 c 0.141 9.48 -1.217 18.051 -4.657 25.362 c 14.345 7.519 22.434 27.063 22.434 42.325 c 0 18.689 -15.655 19 -34.967 19 c -8.488 0 -16.268 -0.062 -22.325 -1.716 c 2.899 2.696 6.95 4.136 11.763 4.914 H 63.336 z" style="stroke: none; stroke-width: 1; stroke-dasharray: none; stroke-linecap: butt; stroke-linejoin: miter; stroke-miterlimit: 10; fill: rgb(228,232,229); fill-rule: nonzero; opacity: 1;" transform=" matrix(1 0 0 1 0 0) " stroke-linecap="round" />
	<path d="M 45 45 c -6.298 0 -11.404 5.106 -11.404 11.404 S 38.702 67.808 45 67.808 s 11.404 -5.106 11.404 -11.404 S 51.298 45 45 45 z" style="stroke: none; stroke-width: 1; stroke-dasharray: none; stroke-linecap: butt; stroke-linejoin: miter; stroke-miterlimit: 10; fill: rgb(242,241,247); fill-rule: nonzero; opacity: 1;" transform=" matrix(1 0 0 1 0 0) " stroke-linecap="round" />
	<path d="M 47.658 45.324 c 3.189 2.635 5.221 6.62 5.221 11.08 c 0 4.46 -2.032 8.445 -5.221 11.08 c 5.014 -1.199 8.746 -5.699 8.746 -11.08 C 56.404 51.023 52.672 46.524 47.658 45.324 z" style="stroke: none; stroke-width: 1; stroke-dasharray: none; stroke-linecap: butt; stroke-linejoin: miter; stroke-miterlimit: 10; fill: rgb(239,250,243); fill-rule: nonzero; opacity: 1;" transform=" matrix(1 0 0 1 0 0) " stroke-linecap="round" />
	<path d="M 56.084 26.622 c -7.553 -0.911 -15.024 -0.902 -22.416 -0.003 c -1.029 0.125 -1.938 -0.662 -1.938 -1.699 v 0 c 0 -0.873 0.653 -1.619 1.521 -1.719 c 7.662 -0.882 15.41 -0.891 23.245 0.002 c 0.868 0.099 1.525 0.845 1.525 1.719 v 0.001 C 58.021 25.959 57.113 26.746 56.084 26.622 z" style="stroke: none; stroke-width: 1; stroke-dasharray: none; stroke-linecap: butt; stroke-linejoin: miter; stroke-miterlimit: 10; fill: rgb(8,7,19); fill-rule: nonzero; opacity: 1;" transform=" matrix(1 0 0 1 0 0) " stroke-linecap="round" />
	<path d="M 44.677 51.395 c -0.728 2.406 -2.626 4.304 -5.033 5.033 c -0.327 0.099 -0.327 0.546 0 0.645 c 2.406 0.728 4.304 2.626 5.033 5.033 c 0.099 0.327 0.546 0.327 0.645 0 c 0.728 -2.406 2.626 -4.304 5.033 -5.033 c 0.327 -0.099 0.327 -0.546 0 -0.645 c -2.406 -0.728 -4.304 -2.626 -5.033 -5.033 C 45.224 51.068 44.776 51.068 44.677 51.395 z" style="stroke: none; stroke-width: 1; stroke-dasharray: none; stroke-linecap: butt; stroke-linejoin: miter; stroke-miterlimit: 10; fill: rgb(8,7,19); fill-rule: nonzero; opacity: 1;" transform=" matrix(1 0 0 1 0 0) " stroke-linecap="round" />
</g>
</g>
</svg>