<svg xmlns="http://www.w3.org/2000/svg" width="19" height="19" viewBox="0 0 19 19">
  <defs>
    <style>
      .cls-1, .cls-4 {
        fill: none;
      }

      .cls-1 {
        stroke: #333c48;
        stroke-width: 2px;
      }

      .cls-2 {
        fill: #333c48;
      }

      .cls-3 {
        stroke: none;
      }
    </style>
  </defs>
  <g id="Groupe_1630" data-name="Groupe 1630" transform="translate(-0.428 -1.561)">
    <g id="Rectangle_1932" data-name="Rectangle 1932" class="cls-1" transform="translate(0.428 1.561)">
      <rect class="cls-3" width="19" height="19" rx="9.5"/>
      <rect class="cls-4" x="1" y="1" width="17" height="17" rx="8.5"/>
    </g>
    <g id="Groupe_1114" data-name="Groupe 1114" transform="translate(5.98 7.522)">
      <path id="Tracé_957" data-name="Tracé 957" class="cls-2" d="M8.286,20.625c-.391-.211-.827.2-1.083.436-.586.571-1.083,1.233-1.639,1.834-.617.662-1.188,1.323-1.819,1.97a5.425,5.425,0,0,0-.992,1.2A19.738,19.738,0,0,0,1.144,24.5C.708,24.173-.014,23.933,0,24.73a5.1,5.1,0,0,0,1.624,2.857,1.717,1.717,0,0,0,1.1.632c.526.03,1.068-.6,1.383-.947.556-.6,1.007-1.278,1.519-1.895.662-.812,1.338-1.609,1.985-2.436C8.015,22.429,9.293,21.166,8.286,20.625ZM.662,24.67a.114.114,0,0,0-.06.015.732.732,0,0,1-.165-.06h0Q.5,24.579.662,24.67Z" transform="translate(-0.001 -20.566)"/>
    </g>
  </g>
</svg>
