<svg xmlns="http://www.w3.org/2000/svg" width="63.063" height="63.061" viewBox="0 0 63.063 63.061">
  <defs>
    <style>
      .cls-1 {
        fill: #dd2c00;
      }
    </style>
  </defs>
  <g id="clock_2_" data-name="clock (2)" transform="translate(0 -0.007)">
    <path id="Tracé_1971" data-name="Tracé 1971" class="cls-1" d="M29.337,53.263c-.58.039-1.171.059-1.756.059a25.7,25.7,0,1,1,24.8-18.855.924.924,0,0,0,1.781.493A27.588,27.588,0,1,0,27.581,55.17c.626,0,1.258-.021,1.88-.063a.924.924,0,1,0-.124-1.843Z" transform="translate(0)"/>
    <path id="Tracé_1972" data-name="Tracé 1972" class="cls-1" d="M77.923,60.468a.923.923,0,0,0,1.066-.755A23.608,23.608,0,1,0,60.1,78.927a.924.924,0,1,0-.342-1.815A21.761,21.761,0,1,1,77.168,59.4a.923.923,0,0,0,.755,1.066Z" transform="translate(-28.115 -28.116)"/>
    <path id="Tracé_1973" data-name="Tracé 1973" class="cls-1" d="M280.422,298.861l-12.376-21.436a3.847,3.847,0,0,0-6.663,0l-12.376,21.436a3.847,3.847,0,0,0,3.331,5.77h24.752a3.847,3.847,0,0,0,3.331-5.77Zm-1.6,2.923a1.979,1.979,0,0,1-1.732,1H252.338a2,2,0,0,1-1.731-3l12.376-21.436a2,2,0,0,1,3.463,0l12.376,21.436A1.979,1.979,0,0,1,278.822,301.784Z" transform="translate(-217.88 -241.563)"/>
    <path id="Tracé_1974" data-name="Tracé 1974" class="cls-1" d="M373.474,329.793a.924.924,0,0,0-.924.924v11.848a.924.924,0,0,0,1.848,0V330.717A.924.924,0,0,0,373.474,329.793Z" transform="translate(-326.664 -289.167)"/>
    <path id="Tracé_1975" data-name="Tracé 1975" class="cls-1" d="M128.731,126.916h16.013a.924.924,0,1,0,0-1.848H128.731A2.9,2.9,0,0,0,124.7,123.4L113.8,112.5a.924.924,0,0,0-1.306,1.306L123.389,124.7a2.9,2.9,0,1,0,5.342,2.212Zm-2.747.127a1.051,1.051,0,1,1,1.051-1.051A1.052,1.052,0,0,1,125.984,127.043Z" transform="translate(-98.403 -98.404)"/>
    <path id="Tracé_1976" data-name="Tracé 1976" class="cls-1" d="M67.951,217.367a.924.924,0,0,0-.924-.924H65.053a.924.924,0,1,0,0,1.848h1.975A.924.924,0,0,0,67.951,217.367Z" transform="translate(-56.23 -189.778)"/>
    <path id="Tracé_1977" data-name="Tracé 1977" class="cls-1" d="M218.284,67.034V65.06a.924.924,0,1,0-1.848,0v1.975a.924.924,0,1,0,1.848,0Z" transform="translate(-189.778 -56.23)"/>
    <path id="Tracé_1978" data-name="Tracé 1978" class="cls-1" d="M216.436,353.641v1.975a.924.924,0,0,0,1.848,0v-1.975a.924.924,0,0,0-1.848,0Z" transform="translate(-189.778 -309.268)"/>
    <path id="Tracé_1979" data-name="Tracé 1979" class="cls-1" d="M140.9,341.862l-.494.855a.924.924,0,1,0,1.6.924l.494-.855a.924.924,0,0,0-1.6-.924Z" transform="translate(-123.003 -299.345)"/>
    <path id="Tracé_1980" data-name="Tracé 1980" class="cls-1" d="M289.5,87.243a.923.923,0,0,0,.8-.462l.494-.855A.924.924,0,0,0,289.2,85l-.494.855a.924.924,0,0,0,.8,1.386Z" transform="translate(-253.037 -74.122)"/>
    <path id="Tracé_1981" data-name="Tracé 1981" class="cls-1" d="M86.775,140.906l-.855-.494a.924.924,0,0,0-.924,1.6l.855.494a.924.924,0,1,0,.924-1.6Z" transform="translate(-74.122 -123.003)"/>
    <path id="Tracé_1982" data-name="Tracé 1982" class="cls-1" d="M141.7,87.243a.924.924,0,0,0,.8-1.386L142,85a.924.924,0,1,0-1.6.924l.494.855A.924.924,0,0,0,141.7,87.243Z" transform="translate(-123.003 -74.122)"/>
    <path id="Tracé_1983" data-name="Tracé 1983" class="cls-1" d="M342.318,142.63a.919.919,0,0,0,.461-.124l.855-.494a.924.924,0,1,0-.924-1.6l-.855.494a.924.924,0,0,0,.463,1.724Z" transform="translate(-299.345 -123.004)"/>
    <path id="Tracé_1984" data-name="Tracé 1984" class="cls-1" d="M85.458,290.929a.92.92,0,0,0,.461-.124l.855-.494a.924.924,0,0,0-.924-1.6l-.855.494a.924.924,0,0,0,.463,1.724Z" transform="translate(-74.121 -253.037)"/>
    <circle id="Ellipse_324" data-name="Ellipse 324" class="cls-1" cx="0.924" cy="0.924" r="0.924" transform="translate(45.886 56.422)"/>
  </g>
</svg>
