<svg id="clock_3_" data-name="clock (3)" xmlns="http://www.w3.org/2000/svg" width="56.5" height="56.5" viewBox="0 0 56.5 56.5">
  <defs>
    <style>
      .cls-1 {
        fill: #ffab00;
      }
    </style>
  </defs>
  <path id="Tracé_1985" data-name="Tracé 1985" class="cls-1" d="M48.226,8.274A28.25,28.25,0,0,0,8.274,48.226,28.25,28.25,0,0,0,48.226,8.274Zm-1.249,38.7A26.484,26.484,0,0,1,9.523,9.523,26.484,26.484,0,0,1,46.977,46.977Z"/>
  <path id="Tracé_1986" data-name="Tracé 1986" class="cls-1" d="M33.766,56.719a22.957,22.957,0,0,1,35.7-19.088.883.883,0,1,0,.982-1.467A24.72,24.72,0,0,0,38.294,73.2a.883.883,0,0,0,1.316-1.177A22.914,22.914,0,0,1,33.766,56.719Z" transform="translate(-28.469 -28.469)"/>
  <path id="Tracé_1987" data-name="Tracé 1987" class="cls-1" d="M148.437,128.388a.883.883,0,1,0-1.467.982,22.955,22.955,0,0,1-33.541,30.584.883.883,0,0,0-1.113,1.371,24.721,24.721,0,0,0,36.121-32.937Z" transform="translate(-99.631 -113.871)"/>
  <path id="Tracé_1988" data-name="Tracé 1988" class="cls-1" d="M392.287,88.534a23.155,23.155,0,0,1,1.7,1.689.883.883,0,0,0,1.308-1.187,24.978,24.978,0,0,0-1.831-1.818.883.883,0,1,0-1.177,1.316Z" transform="translate(-348.736 -77.394)"/>
  <path id="Tracé_1989" data-name="Tracé 1989" class="cls-1" d="M248.883,68.414a.883.883,0,0,0,.883-.883V64.883a.883.883,0,1,0-1.766,0v2.648A.883.883,0,0,0,248.883,68.414Z" transform="translate(-220.633 -56.938)"/>
  <path id="Tracé_1990" data-name="Tracé 1990" class="cls-1" d="M248,408.883v2.648a.883.883,0,0,0,1.766,0v-2.648a.883.883,0,0,0-1.766,0Z" transform="translate(-220.633 -362.977)"/>
  <path id="Tracé_1991" data-name="Tracé 1991" class="cls-1" d="M68.414,248.883a.883.883,0,0,0-.883-.883H64.883a.883.883,0,1,0,0,1.766h2.648A.883.883,0,0,0,68.414,248.883Z" transform="translate(-56.938 -220.633)"/>
  <path id="Tracé_1992" data-name="Tracé 1992" class="cls-1" d="M408,248.883a.883.883,0,0,0,.883.883h2.648a.883.883,0,0,0,0-1.766h-2.648A.883.883,0,0,0,408,248.883Z" transform="translate(-362.977 -220.633)"/>
  <path id="Tracé_1993" data-name="Tracé 1993" class="cls-1" d="M158.971,91.385l-1.324-2.294a.883.883,0,0,0-1.529.883l1.324,2.294a.883.883,0,1,0,1.529-.883Z" transform="translate(-138.784 -78.867)"/>
  <path id="Tracé_1994" data-name="Tracé 1994" class="cls-1" d="M329.646,387.005a.883.883,0,1,0-1.529.883l1.324,2.294a.883.883,0,0,0,1.529-.883Z" transform="translate(-291.804 -343.906)"/>
  <path id="Tracé_1995" data-name="Tracé 1995" class="cls-1" d="M89.535,331.09a.879.879,0,0,0,.441-.118l2.294-1.324a.883.883,0,0,0-.883-1.529l-2.294,1.324a.883.883,0,0,0,.442,1.647Z" transform="translate(-78.868 -291.805)"/>
  <path id="Tracé_1996" data-name="Tracé 1996" class="cls-1" d="M387.447,159.09a.879.879,0,0,0,.441-.118l2.294-1.324a.883.883,0,0,0-.883-1.529L387,157.442a.883.883,0,0,0,.442,1.647Z" transform="translate(-343.905 -138.785)"/>
  <path id="Tracé_1997" data-name="Tracé 1997" class="cls-1" d="M330.647,88.768a.883.883,0,0,0-1.206.323l-1.324,2.294a.883.883,0,1,0,1.529.883l1.324-2.294A.883.883,0,0,0,330.647,88.768Z" transform="translate(-291.804 -78.867)"/>
  <path id="Tracé_1998" data-name="Tracé 1998" class="cls-1" d="M158.648,386.681a.883.883,0,0,0-1.206.323l-1.324,2.294a.883.883,0,1,0,1.529.883l1.324-2.294A.883.883,0,0,0,158.648,386.681Z" transform="translate(-138.784 -343.905)"/>
  <path id="Tracé_1999" data-name="Tracé 1999" class="cls-1" d="M387,329.646l2.294,1.324a.883.883,0,1,0,.883-1.529l-2.294-1.324a.883.883,0,0,0-.883,1.529Z" transform="translate(-343.905 -291.803)"/>
  <path id="Tracé_2000" data-name="Tracé 2000" class="cls-1" d="M92.268,157.441l-2.294-1.324a.883.883,0,0,0-.883,1.529l2.294,1.324a.883.883,0,1,0,.883-1.529Z" transform="translate(-78.867 -138.784)"/>
  <path id="Tracé_2001" data-name="Tracé 2001" class="cls-1" d="M240.794,146.534a.883.883,0,0,0,.764-1.324l-4.9-8.483a2.645,2.645,0,0,0-1.129-4.216V120.883a.883.883,0,0,0-1.766,0v11.628a2.648,2.648,0,0,0,1.366,5.1l4.9,8.481A.883.883,0,0,0,240.794,146.534Zm-7.029-11.526a.883.883,0,1,1,.883.883A.884.884,0,0,1,233.766,135.008Z" transform="translate(-206.398 -106.758)"/>
</svg>
