<svg width="25" height="22" viewBox="0 0 25 22" fill="none" xmlns="http://www.w3.org/2000/svg">
<path d="M12.3224 7.9238e-07C9.94895 -0.000272222 7.62592 0.684998 5.6326 1.97343C3.63928 3.26186 2.06053 5.09861 1.08615 7.26285C0.111763 9.42709 -0.216779 11.8267 0.140022 14.1732C0.496823 16.5197 1.52378 18.7132 3.09742 20.49C3.15842 20.556 3.21343 20.622 3.27343 20.683C3.40366 20.8239 3.56173 20.9362 3.73762 21.0128C3.91351 21.0894 4.10339 21.1287 4.29524 21.1281C4.4871 21.1276 4.67674 21.0872 4.85218 21.0095C5.02762 20.9319 5.18502 20.8186 5.31443 20.677C6.20661 19.7075 7.2902 18.9337 8.4967 18.4043C9.70321 17.875 11.0064 17.6017 12.3239 17.6017C13.6414 17.6017 14.9446 17.875 16.1511 18.4043C17.3577 18.9337 18.4412 19.7075 19.3334 20.677C19.4628 20.8186 19.6202 20.9319 19.7957 21.0095C19.9711 21.0872 20.1608 21.1276 20.3526 21.1281C20.5445 21.1287 20.7343 21.0894 20.9102 21.0128C21.0861 20.9362 21.2442 20.8239 21.3744 20.683L21.5504 20.49C23.1242 18.713 24.1512 16.5192 24.5079 14.1725C24.8646 11.8257 24.5358 9.42583 23.5611 7.26148C22.5863 5.09712 21.0071 3.26041 19.0134 1.97221C17.0196 0.684003 14.6962 -0.000850344 12.3224 7.9238e-07V7.9238e-07ZM11.5524 2.525C11.5524 2.32065 11.6336 2.12467 11.7781 1.98017C11.9226 1.83568 12.1186 1.7545 12.3229 1.7545C12.5273 1.7545 12.7233 1.83568 12.8678 1.98017C13.0122 2.12467 13.0934 2.32065 13.0934 2.525V4.506C13.0934 4.71035 13.0122 4.90633 12.8678 5.05083C12.7233 5.19532 12.5273 5.2765 12.3229 5.2765C12.1186 5.2765 11.9226 5.19532 11.7781 5.05083C11.6336 4.90633 11.5524 4.71035 11.5524 4.506V2.525ZM4.50943 13.09H2.52842C2.32407 13.09 2.1281 13.0088 1.9836 12.8643C1.8391 12.7198 1.75793 12.5239 1.75793 12.3195C1.75793 12.1152 1.8391 11.9192 1.9836 11.7747C2.1281 11.6302 2.32407 11.549 2.52842 11.549H4.50943C4.71378 11.549 4.90976 11.6302 5.05425 11.7747C5.19875 11.9192 5.27993 12.1152 5.27993 12.3195C5.27993 12.5239 5.19875 12.7198 5.05425 12.8643C4.90976 13.0088 4.71378 13.09 4.50943 13.09ZM7.34343 7.34C7.19813 7.48273 7.0026 7.5627 6.79892 7.5627C6.59525 7.5627 6.39972 7.48273 6.25443 7.34L4.85442 5.94C4.71001 5.79559 4.62889 5.59973 4.62889 5.3955C4.62889 5.19127 4.71001 4.99541 4.85442 4.851C4.99883 4.70659 5.1947 4.62546 5.39893 4.62546C5.60315 4.62546 5.79901 4.70659 5.94342 4.851L7.34343 6.251C7.41487 6.32257 7.47152 6.40751 7.51013 6.50097C7.54875 6.59443 7.56857 6.69458 7.56848 6.79571C7.56839 6.89683 7.54838 6.99695 7.50959 7.09034C7.4708 7.18373 7.414 7.26856 7.34243 7.34H7.34343ZM16.1794 9.24L13.5664 13.394C13.4595 13.5421 13.3295 13.6721 13.1814 13.779C12.8234 14.0344 12.3785 14.1371 11.9448 14.0645C11.511 13.992 11.1238 13.75 10.8684 13.392C10.613 13.034 10.5103 12.5891 10.5829 12.1554C10.6555 11.7216 10.8974 11.3344 11.2554 11.079L15.4094 8.465C15.5039 8.39914 15.6163 8.36383 15.7314 8.36383C15.8466 8.36383 15.959 8.39914 16.0534 8.465C16.1125 8.50741 16.1627 8.56107 16.201 8.62291C16.2394 8.68475 16.2651 8.75354 16.2768 8.82535C16.2886 8.89716 16.286 8.97057 16.2693 9.04138C16.2525 9.11219 16.222 9.17901 16.1794 9.238V9.24ZM18.3914 7.34C18.2469 7.48507 18.0506 7.56679 17.8458 7.56716C17.6411 7.56754 17.4445 7.48655 17.2994 7.342C17.1543 7.19746 17.0726 7.00121 17.0723 6.79642C17.0719 6.59163 17.1529 6.39507 17.2974 6.25L18.6974 4.85C18.8416 4.70413 19.0378 4.6215 19.2428 4.62028C19.4479 4.61906 19.6451 4.69935 19.7909 4.8435C19.9368 4.98764 20.0194 5.18383 20.0206 5.3889C20.0219 5.59397 19.9416 5.79113 19.7974 5.937L18.3914 7.34ZM22.1164 13.09H20.1354C19.9311 13.09 19.7351 13.0088 19.5906 12.8643C19.4461 12.7198 19.3649 12.5239 19.3649 12.3195C19.3649 12.1152 19.4461 11.9192 19.5906 11.7747C19.7351 11.6302 19.9311 11.549 20.1354 11.549H22.1164C22.3208 11.549 22.5168 11.6302 22.6613 11.7747C22.8057 11.9192 22.8869 12.1152 22.8869 12.3195C22.8869 12.5239 22.8057 12.7198 22.6613 12.8643C22.5168 13.0088 22.3208 13.09 22.1164 13.09V13.09Z" fill="black"/>
</svg>
