<svg xmlns="http://www.w3.org/2000/svg" width="24.301" height="24.301" viewBox="0 0 24.301 24.301">
  <defs>
    <style>
      .cls-1 {
        fill: #333c48;
        opacity: 0.2;
      }
    </style>
  </defs>
  <path id="ios-expand" class="cls-1" d="M67.063,65.772H71.98a.878.878,0,0,0,.88-.88V64.88a.878.878,0,0,0-.88-.88h-7.1a.878.878,0,0,0-.88.88v7.1a.878.878,0,0,0,.88.88h.013a.878.878,0,0,0,.88-.88V67.063l7.41,7.36a.871.871,0,0,0,.62.253.851.851,0,0,0,.62-.259.878.878,0,0,0,0-1.24ZM87.421,64h-7.1a.878.878,0,0,0-.88.88v.013a.878.878,0,0,0,.88.88h4.917l-7.36,7.41a.879.879,0,0,0,1.24,1.247l7.41-7.366V71.98a.878.878,0,0,0,.88.88h.013a.878.878,0,0,0,.88-.88v-7.1A.878.878,0,0,0,87.421,64ZM73.8,77.619a.871.871,0,0,0-.62.253l-7.41,7.366V80.321a.878.878,0,0,0-.88-.88H64.88a.878.878,0,0,0-.88.88v7.1a.878.878,0,0,0,.88.88h7.1a.878.878,0,0,0,.88-.88v-.013a.878.878,0,0,0-.88-.88H67.063l7.36-7.41a.88.88,0,0,0-.62-1.5Zm13.619,1.823h-.013a.878.878,0,0,0-.88.88v4.917l-7.41-7.36a.871.871,0,0,0-.62-.253.851.851,0,0,0-.62.259.878.878,0,0,0,0,1.24l7.36,7.4H80.321a.878.878,0,0,0-.88.88v.013a.878.878,0,0,0,.88.88h7.1a.878.878,0,0,0,.88-.88v-7.1A.878.878,0,0,0,87.421,79.441Z" transform="translate(-64 -64)"/>
</svg>
