<svg xmlns="http://www.w3.org/2000/svg" width="16.94" height="13.173" viewBox="0 0 16.94 13.173">
  <defs>
    <style>
      .cls-1 {
        fill: #9a9ca0;
      }
    </style>
  </defs>
  <path id="Icon_awesome-home" data-name="Icon awesome-home" class="cls-1" d="M8.244,5.671,2.822,10.136v4.82a.471.471,0,0,0,.471.471l3.3-.009a.471.471,0,0,0,.468-.471V12.133a.471.471,0,0,1,.471-.471H9.409a.471.471,0,0,1,.471.471v2.813a.471.471,0,0,0,.471.472l3.294.009a.471.471,0,0,0,.471-.471V10.133L8.694,5.671A.358.358,0,0,0,8.244,5.671Zm8.564,3.035L14.35,6.68V2.606A.353.353,0,0,0,14,2.254H12.35A.353.353,0,0,0,12,2.606V4.742L9.365,2.576a1.412,1.412,0,0,0-1.794,0L.127,8.706a.353.353,0,0,0-.047.5l.75.912a.353.353,0,0,0,.5.048l6.917-5.7a.358.358,0,0,1,.45,0l6.918,5.7a.353.353,0,0,0,.5-.047l.75-.912a.353.353,0,0,0-.05-.5Z" transform="translate(0.001 -2.254)"/>
</svg>
