<svg xmlns="http://www.w3.org/2000/svg" width="26.649" height="35.906" viewBox="0 0 26.649 35.906">
  <defs>
    <style>
      .cls-1 {
        opacity: 0.4;
      }
    </style>
  </defs>
  <g id="surface1" class="cls-1">
    <path id="Tracé_783" data-name="Tracé 783" d="M89.844,13.816v-3.3a10.519,10.519,0,1,0-21.039,0v3.3A3.512,3.512,0,0,0,66,17.252v3.981a.7.7,0,1,0,1.4,0V17.252a2.106,2.106,0,0,1,2.1-2.1H89.143a2.106,2.106,0,0,1,2.1,2.1V32.4a2.107,2.107,0,0,1-1.4,1.983V30.156a.7.7,0,1,0-1.4,0V34.5H69.506a2.106,2.106,0,0,1-2.1-2.1v-5.54a.7.7,0,1,0-1.4,0V32.4a3.51,3.51,0,0,0,3.506,3.506H89.143A3.51,3.51,0,0,0,92.649,32.4V17.252A3.512,3.512,0,0,0,89.844,13.816Zm-15.849-.071V10.519a5.33,5.33,0,0,1,10.66,0v3.226Zm12.062,0V10.519a6.732,6.732,0,0,0-13.465,0v3.226H70.208V10.519a9.117,9.117,0,1,1,18.234,0v3.226Z" transform="translate(-66)"/>
    <path id="Tracé_784" data-name="Tracé 784" d="M66.7,333.891a.7.7,0,1,0-.5-.205A.706.706,0,0,0,66.7,333.891Z" transform="translate(-66 -309.171)"/>
    <path id="Tracé_785" data-name="Tracé 785" d="M205.907,288.684a2.106,2.106,0,0,0,2.1-2.1v-3.724a3.787,3.787,0,1,0-4.208-.012v3.736A2.106,2.106,0,0,0,205.907,288.684Zm-2.375-8.983a2.384,2.384,0,1,1,3.461,2.127.7.7,0,0,0-.384.625v4.126a.7.7,0,1,1-1.4,0v-4.135a.7.7,0,0,0-.38-.623A2.377,2.377,0,0,1,203.532,279.7Z" transform="translate(-192.582 -256.564)"/>
    <path id="Tracé_786" data-name="Tracé 786" d="M386.7,380.4a.7.7,0,1,0-.5-.206A.705.705,0,0,0,386.7,380.4Z" transform="translate(-363.559 -352.421)"/>
  </g>
</svg>
