<svg xmlns="http://www.w3.org/2000/svg" width="60.173" height="49.894" viewBox="0 0 60.173 49.894">
  <defs>
    <style>
      .cls-1 {
        fill: #43a047;
      }
    </style>
  </defs>
  <g id="Groupe_1558" data-name="Groupe 1558" transform="translate(-1689.719 -324)">
    <g id="group_1_" data-name="group (1)" transform="translate(1689.719 324)">
      <g id="Groupe_1506" data-name="Groupe 1506" transform="translate(0 21.854)">
        <g id="Groupe_1505" data-name="Groupe 1505">
          <path id="Tracé_1951" data-name="Tracé 1951" class="cls-1" d="M51.358,234.2h-5.89a8.792,8.792,0,0,0-2.316.311,8.822,8.822,0,0,0-7.86-4.832H24.881a8.822,8.822,0,0,0-7.86,4.832A8.792,8.792,0,0,0,14.7,234.2H8.814A8.824,8.824,0,0,0,0,243.016v9.416a5.3,5.3,0,0,0,5.289,5.289h49.6a5.3,5.3,0,0,0,5.289-5.289v-9.416A8.824,8.824,0,0,0,51.358,234.2Zm-35.292,4.293v15.7H5.289a1.765,1.765,0,0,1-1.763-1.763v-9.416a5.3,5.3,0,0,1,5.289-5.289H14.7a5.271,5.271,0,0,1,1.383.185C16.075,238.1,16.066,238.3,16.066,238.495Zm24.514,15.7H19.592v-15.7a5.3,5.3,0,0,1,5.289-5.289H35.292a5.3,5.3,0,0,1,5.289,5.289Zm16.066-1.763a1.765,1.765,0,0,1-1.763,1.763H44.106v-15.7c0-.2-.009-.39-.021-.583a5.275,5.275,0,0,1,1.383-.185h5.89a5.3,5.3,0,0,1,5.289,5.289Z" transform="translate(0 -229.68)"/>
        </g>
      </g>
      <g id="Groupe_1508" data-name="Groupe 1508" transform="translate(3.927 9.728)">
        <g id="Groupe_1507" data-name="Groupe 1507">
          <path id="Tracé_1952" data-name="Tracé 1952" class="cls-1" d="M41.247,126.5a7.833,7.833,0,1,0,7.833,7.833A7.841,7.841,0,0,0,41.247,126.5Zm0,12.139a4.307,4.307,0,1,1,4.307-4.307A4.312,4.312,0,0,1,41.246,138.643Z" transform="translate(-33.414 -126.504)"/>
        </g>
      </g>
      <g id="Groupe_1510" data-name="Groupe 1510" transform="translate(19.622 0)">
        <g id="Groupe_1509" data-name="Groupe 1509">
          <path id="Tracé_1953" data-name="Tracé 1953" class="cls-1" d="M177.426,43.729A10.464,10.464,0,1,0,187.89,54.193,10.476,10.476,0,0,0,177.426,43.729Zm0,17.4a6.938,6.938,0,1,1,6.938-6.938A6.946,6.946,0,0,1,177.426,61.132Z" transform="translate(-166.962 -43.729)"/>
        </g>
      </g>
      <g id="Groupe_1512" data-name="Groupe 1512" transform="translate(40.581 9.728)">
        <g id="Groupe_1511" data-name="Groupe 1511">
          <path id="Tracé_1954" data-name="Tracé 1954" class="cls-1" d="M353.127,126.5a7.833,7.833,0,1,0,7.833,7.833A7.841,7.841,0,0,0,353.127,126.5Zm0,12.139a4.307,4.307,0,1,1,4.307-4.307A4.312,4.312,0,0,1,353.127,138.643Z" transform="translate(-345.294 -126.504)"/>
        </g>
      </g>
    </g>
  </g>
</svg>
