<svg xmlns="http://www.w3.org/2000/svg" width="22.264" height="24.84" viewBox="0 0 22.264 24.84">
  <defs>
    <style>
      .cls-1 {
        fill: #fff;
      }
    </style>
  </defs>
  <g id="notification-bell" transform="translate(-31.737)">
    <g id="Groupe_1497" data-name="Groupe 1497" transform="translate(31.737)">
      <g id="Groupe_1496" data-name="Groupe 1496" transform="translate(0)">
        <path id="Tracé_1941" data-name="Tracé 1941" class="cls-1" d="M53.589,20.3c-2.64-1.192-2.74-6.309-2.742-6.438V10.433a7.99,7.99,0,0,0-4.888-7.355,3.09,3.09,0,0,0-6.179,0,7.99,7.99,0,0,0-4.888,7.355v3.433c0,.129-.1,5.246-2.742,6.438a.7.7,0,0,0,.288,1.339H39.13a3.937,3.937,0,0,0,1.04,2.025,3.7,3.7,0,0,0,5.4,0,3.936,3.936,0,0,0,1.04-2.025H53.3a.7.7,0,0,0,.289-1.339Zm-3.477-2.451a7.769,7.769,0,0,0,1.228,2.389H34.4a7.768,7.768,0,0,0,1.228-2.389ZM42.869,1.4a1.692,1.692,0,0,1,1.623,1.221,8.012,8.012,0,0,0-3.245,0A1.692,1.692,0,0,1,42.869,1.4ZM36.293,13.87V10.433a6.577,6.577,0,0,1,13.153,0v3.443a14.62,14.62,0,0,0,.3,2.576H36A14.629,14.629,0,0,0,36.293,13.87Zm6.577,9.569a2.457,2.457,0,0,1-2.3-1.8h4.6A2.457,2.457,0,0,1,42.869,23.439Z" transform="translate(-31.737)"/>
        <path id="Tracé_1942" data-name="Tracé 1942" class="cls-1" d="M176.809,119.235a5.472,5.472,0,0,0-5.465,5.465.7.7,0,0,0,1.4,0,4.069,4.069,0,0,1,4.065-4.064.7.7,0,1,0,0-1.4Z" transform="translate(-165.678 -114.395)"/>
      </g>
    </g>
  </g>
</svg>
