<svg xmlns="http://www.w3.org/2000/svg" width="17.987" height="17.987" viewBox="0 0 17.987 17.987">
  <defs>
    <style>
      .cls-1 {
        fill: #fff;
      }
    </style>
  </defs>
  <path id="Tracé_2" data-name="Tracé 2" class="cls-1" d="M2.248,7.869A5.566,5.566,0,0,1,7.869,2.248,5.566,5.566,0,0,1,13.49,7.869,5.566,5.566,0,0,1,7.869,13.49,5.566,5.566,0,0,1,2.248,7.869ZM16.076,17.65a1.113,1.113,0,0,0,1.574-1.574l-3.485-3.485a7.7,7.7,0,0,0,1.574-4.722A7.821,7.821,0,0,0,7.869,0,7.821,7.821,0,0,0,0,7.869a7.821,7.821,0,0,0,7.869,7.869,7.7,7.7,0,0,0,4.722-1.574Z"/>
</svg>
