<svg id="Composant_22_1" data-name="Composant 22 – 1" xmlns="http://www.w3.org/2000/svg" width="7.305" height="7.305" viewBox="0 0 7.305 7.305">
  <defs>
    <style>
      .cls-1 {
        fill: #00173f;
      }
    </style>
  </defs>
  <path id="Tracé_13" data-name="Tracé 13" class="cls-1" d="M1.1,1.1A3.316,3.316,0,0,1,3.652,0,3.316,3.316,0,0,1,6.209,1.1,3.316,3.316,0,0,1,7.3,3.652a3.316,3.316,0,0,1-1.1,2.557A3.316,3.316,0,0,1,3.652,7.3,3.316,3.316,0,0,1,1.1,6.209,3.645,3.645,0,0,1,0,3.652,3.316,3.316,0,0,1,1.1,1.1ZM5.3,5.3l.426-.426L4.2,3.348,3.652.913H3.044V3.652a.553.553,0,0,0,.183.426.213.213,0,0,0,.122.061Z"/>
</svg>
