<svg xmlns="http://www.w3.org/2000/svg" width="39.69" height="22.138" viewBox="0 0 39.69 22.138">
  <g id="Groupe_1888" data-name="Groupe 1888" transform="translate(0 27)">
    <path id="Tracé_2266" data-name="Tracé 2266" d="M9.272-26.739a.732.732,0,0,0-.6-.261H.8a.762.762,0,0,0-.8.781v13.283a.762.762,0,0,0,.8.781H6.737a.787.787,0,0,0,.8-.651L9.472-26.088A.956.956,0,0,0,9.272-26.739ZM6-13.782H1.6V-25.5h6.07ZM38.889-27H31.018a.855.855,0,0,0-.6.261,1.081,1.081,0,0,0-.2.651l.2,1.172-8.805-.912-2.735-.065h0a.824.824,0,0,0-.6.261l-.934.911h-6a.762.762,0,0,0-.8.781.762.762,0,0,0,.8.781h4.4l-2.8,2.735a2.337,2.337,0,0,0-.734,1.693,2.337,2.337,0,0,0,.734,1.693,2.452,2.452,0,0,0,1.734.716,2.4,2.4,0,0,0,1.668-.651l2.2-1.758,2.335-.325,4.6,4.428,3.4,3.321a.8.8,0,0,1,.267.521.588.588,0,0,1-.267.521.781.781,0,0,1-1.134,0l-.4-.391h0l-4.2-4.1a.779.779,0,0,0-1.134,0,.737.737,0,0,0,0,1.107l.4.391h0l3.8,3.711a.737.737,0,0,1,0,1.107.78.78,0,0,1-1.134,0L23.947-9.55l-3-2.93-1.134-1.107a.779.779,0,0,0-1.134,0,.737.737,0,0,0,0,1.107l1.134,1.107,3,2.93a.8.8,0,0,1,.267.521.588.588,0,0,1-.267.521.78.78,0,0,1-1.134,0l-1.6-1.432L17.343-11.5l-1.468-1.432a.779.779,0,0,0-1.134,0,.737.737,0,0,0,0,1.107L16.209-10.4l2.735,2.67a.738.738,0,0,1,0,1.107.781.781,0,0,1-1.134,0l-4.2-4.1h-.067l-.067-.065-3.335-2.539a.847.847,0,0,0-1.134.13.8.8,0,0,0,.133,1.107l3.269,2.474,4.136,4.037a2.451,2.451,0,0,0,1.734.716,2.573,2.573,0,0,0,1.734-.716,2.685,2.685,0,0,0,.467-.716,2.382,2.382,0,0,0,1.534.586,2.573,2.573,0,0,0,1.734-.716,2.891,2.891,0,0,0,.534-.716,2.769,2.769,0,0,0,1.2.326,2.452,2.452,0,0,0,1.734-.716,2.212,2.212,0,0,0,.6-1.172h.333a2.451,2.451,0,0,0,1.734-.716,2.337,2.337,0,0,0,.734-1.693v-.2l1.534-1.823V-13a.787.787,0,0,0,.8.651h5.937a.762.762,0,0,0,.8-.781V-26.414A.752.752,0,0,0,38.889-27ZM29.817-12.676l-3.335-3.19-.734-.716h0l-4.069-3.972a.765.765,0,0,0-.734-.2l-2.935.456h-.067a.235.235,0,0,0-.133.065c-.067,0-.067.065-.133.065H17.61l-2.4,1.888a.779.779,0,0,1-1.134,0,.8.8,0,0,1-.267-.521.588.588,0,0,1,.267-.521l5.07-4.948,2.335.065,9.139.977,1.134,8.334Zm8.271-1.107h-4.4L31.952-25.5h6.07v11.72Z" fill="#3378e1" fill-rule="evenodd"/>
  </g>
</svg>
