<svg xmlns="http://www.w3.org/2000/svg" width="15.375" height="15.376" viewBox="0 0 15.375 15.376">
  <g id="facebook" transform="translate(0 0.001)">
    <g id="Groupe_1872" data-name="Groupe 1872" transform="translate(0 -0.001)">
      <path id="Tracé_2246" data-name="Tracé 2246" d="M13.453,0H1.922A1.924,1.924,0,0,0,0,1.922V13.454a1.924,1.924,0,0,0,1.922,1.922H7.688V10.09H5.766v-2.4H7.688V5.766A2.883,2.883,0,0,1,10.57,2.883h1.922v2.4h-.961c-.53,0-.961-.05-.961.48V7.688h2.4l-.961,2.4H10.57v5.285h2.883a1.924,1.924,0,0,0,1.922-1.922V1.922A1.924,1.924,0,0,0,13.453,0Z" fill="#fff"/>
    </g>
  </g>
</svg>
