<svg xmlns="http://www.w3.org/2000/svg" width="81.691" height="72.267" viewBox="0 0 81.691 72.267">
  <g id="Groupe_1900" data-name="Groupe 1900" transform="translate(0 41)">
    <path id="Tracé_2280" data-name="Tracé 2280" d="M62.355,16.5H42.789a3.569,3.569,0,0,1-3.8-1.988A6.716,6.716,0,0,1,39.834,7.7L45.886.032a5.432,5.432,0,0,0,0-7.667,5.414,5.414,0,0,0-3.8-1.562h0a5.414,5.414,0,0,0-3.8,1.562L29.136,1.594a2.252,2.252,0,0,1-1.548.71,15.726,15.726,0,0,0-7.178,1.7L17.031,5.853l.141-1.136A1.726,1.726,0,0,0,16.75,3.3a1.522,1.522,0,0,0-1.267-.568H1.689A1.633,1.633,0,0,0,0,4.433V28.428a1.633,1.633,0,0,0,1.689,1.7H11.964a1.676,1.676,0,0,0,1.689-1.42l.141-1.278L33.64,30.841a27.681,27.681,0,0,0,4.927.426,28.337,28.337,0,0,0,8.445-1.278,14.038,14.038,0,0,0,2.956-1.42L63.2,19.625a2.1,2.1,0,0,0,.7-1.988A1.527,1.527,0,0,0,62.355,16.5Zm-51.8,10.365H3.378V6.279h9.993L10.7,25.162h0ZM48.138,25.73a8.574,8.574,0,0,1-1.971.994,25.613,25.613,0,0,1-11.823.71L14.5,24.026l1.971-13.914,5.63-2.84a12.728,12.728,0,0,1,5.63-1.42,5.091,5.091,0,0,0,3.941-1.7l9.149-9.229a1.8,1.8,0,0,1,1.408-.568h0a1.8,1.8,0,0,1,1.408.568,2.035,2.035,0,0,1-.141,2.839L37.3,5.569a9.931,9.931,0,0,0-1.267,10.507,6.958,6.958,0,0,0,7.038,3.975H56.724ZM80.512,11.248a7.893,7.893,0,0,1-6.756,3.833H44.338a1.633,1.633,0,0,1-1.689-1.7,1.633,1.633,0,0,1,1.689-1.7H73.755A4.859,4.859,0,0,0,77.7,9.544a4.466,4.466,0,0,0,.141-4.4L64.184-16.437a4.624,4.624,0,0,0-4.222-2.7H52.642a4.694,4.694,0,0,0-4.082,2.556L46.308-13.03a1.786,1.786,0,0,1-2.393.568,1.82,1.82,0,0,1-.563-2.414l2.111-3.408A7.942,7.942,0,0,1,52.5-22.543h7.319A8.023,8.023,0,0,1,67-18.141L80.653,3.439A7.434,7.434,0,0,1,80.512,11.248ZM64.043-25.95a1.633,1.633,0,0,1-1.689,1.7H50.25a1.634,1.634,0,0,1-1.689-1.7,1.633,1.633,0,0,1,1.689-1.7h12.1A1.633,1.633,0,0,1,64.043-25.95ZM48.7-30.635a1.821,1.821,0,0,0,1.689,1.278H62.355a1.974,1.974,0,0,0,1.689-1.278l2.393-8.093a1.986,1.986,0,0,0-.281-1.562A1.727,1.727,0,0,0,64.747-41H47.857a1.728,1.728,0,0,0-1.408.71,1.986,1.986,0,0,0-.281,1.562Zm13.653-6.957-1.408,4.685H51.516l-1.408-4.685ZM56.3-10.616a1.634,1.634,0,0,1-1.689-1.7v-2.556a1.633,1.633,0,0,1,1.689-1.7,1.633,1.633,0,0,1,1.689,1.7v2.556A1.719,1.719,0,0,1,56.3-10.616Zm0,15.334a1.633,1.633,0,0,1,1.689,1.7V8.977a1.689,1.689,0,1,1-3.378,0V6.563A1.755,1.755,0,0,1,56.3,4.717ZM59.821-.11a.912.912,0,0,0-.845-.852H53.769a4.4,4.4,0,0,1-4.363-4.4,4.4,4.4,0,0,1,4.363-4.4H61.51a1.633,1.633,0,0,1,1.689,1.7,1.633,1.633,0,0,1-1.689,1.7H53.769a.912.912,0,0,0-.845.852.912.912,0,0,0,.845.852h5.208a4.4,4.4,0,0,1,4.363,4.4,4.4,4.4,0,0,1-4.363,4.4H51.094a1.633,1.633,0,0,1-1.689-1.7,1.633,1.633,0,0,1,1.689-1.7h7.882A.912.912,0,0,0,59.821-.11Z" transform="translate(0 0)" fill="#3378e1" fill-rule="evenodd"/>
  </g>
</svg>
