<svg xmlns="http://www.w3.org/2000/svg" width="82.076" height="59.698" viewBox="0 0 82.076 59.698">
  <g id="Groupe_1901" data-name="Groupe 1901" transform="translate(0 45)">
    <path id="Tracé_2281" data-name="Tracé 2281" d="M46.72,2.959a1.638,1.638,0,0,1-1.684,1.718H33.251a1.638,1.638,0,0,1-1.684-1.718,1.638,1.638,0,0,1,1.684-1.718H45.036A1.723,1.723,0,0,1,46.72,2.959ZM80.673-16.8,69.729-19.66,58.225-44a1.723,1.723,0,0,0-1.543-1h-55A1.638,1.638,0,0,0,0-43.282v46.1A1.311,1.311,0,0,0,.561,3.961c.421.286.7.573,1.122.573H5.612A1.638,1.638,0,0,0,7.3,2.816,1.638,1.638,0,0,0,5.612,1.1H3.367V-41.564H55.7L67.063-17.513c.281.429.561.859,1.122.859l10.523,2.72V1.1H72.535a1.638,1.638,0,0,0-1.684,1.718,1.638,1.638,0,0,0,1.684,1.718h7.857a1.638,1.638,0,0,0,1.684-1.718V-15.222A1.979,1.979,0,0,0,80.673-16.8ZM39.144-19.374a1.638,1.638,0,0,1-1.684-1.718V-37.126a1.638,1.638,0,0,1,1.684-1.718H52.893a1.724,1.724,0,0,1,1.543,1l7.3,16.034a1.875,1.875,0,0,1-.14,1.718,1.855,1.855,0,0,1-1.4.859H39.144Zm1.684-3.436h16.7l-5.752-12.6H40.827ZM19.5-38.558a1.638,1.638,0,0,0-1.684,1.718v6.013H11.925a1.638,1.638,0,0,0-1.684,1.718,1.638,1.638,0,0,0,1.684,1.718h5.893v6.013A1.638,1.638,0,0,0,19.5-19.66a1.638,1.638,0,0,0,1.684-1.718v-6.013h5.893a1.638,1.638,0,0,0,1.684-1.718,1.638,1.638,0,0,0-1.684-1.718H21.185V-36.84A1.723,1.723,0,0,0,19.5-38.558ZM30.165,3.818A10.768,10.768,0,0,1,19.5,14.7,10.768,10.768,0,0,1,8.839,3.818,10.768,10.768,0,0,1,19.5-7.062,10.768,10.768,0,0,1,30.165,3.818Zm-3.367,0a7.3,7.3,0,1,0-14.591,0,7.321,7.321,0,0,0,7.3,7.444A7.506,7.506,0,0,0,26.8,3.818Zm-2.525,0a4.771,4.771,0,1,1-9.541,0,4.771,4.771,0,1,1,9.541,0Zm-3.367,0a1.42,1.42,0,0,0-1.4-1.432,1.524,1.524,0,0,0-1.4,1.432A1.524,1.524,0,0,0,19.5,5.25,1.525,1.525,0,0,0,20.9,3.818Zm47.562,0a10.665,10.665,0,1,1-21.326,0,10.665,10.665,0,1,1,21.326,0Zm-3.367,0a7.3,7.3,0,1,0-14.591,0,7.321,7.321,0,0,0,7.3,7.444A7.412,7.412,0,0,0,65.1,3.818Zm-2.385,0a4.771,4.771,0,1,1-9.541,0,4.771,4.771,0,1,1,9.541,0Zm-3.367,0a1.4,1.4,0,1,0-2.806,0,1.4,1.4,0,1,0,2.806,0Z" fill="#6f96aa" fill-rule="evenodd"/>
  </g>
</svg>
