<svg id="linkedin" xmlns="http://www.w3.org/2000/svg" width="15.652" height="15.653" viewBox="0 0 15.652 15.653">
  <path id="Tracé_2248" data-name="Tracé 2248" d="M18.6,18.287h0V12.546c0-2.808-.6-4.972-3.888-4.972a3.408,3.408,0,0,0-3.07,1.687H11.6V7.836H8.489v10.45H11.73V13.112c0-1.362.258-2.68,1.945-2.68,1.662,0,1.687,1.555,1.687,2.767v5.088Z" transform="translate(-2.953 -2.634)" fill="#fff"/>
  <path id="Tracé_2249" data-name="Tracé 2249" d="M.4,7.977H3.641v10.45H.4Z" transform="translate(-0.138 -2.774)" fill="#fff"/>
  <path id="Tracé_2250" data-name="Tracé 2250" d="M1.88,0a1.888,1.888,0,1,0,1.88,1.88A1.88,1.88,0,0,0,1.88,0Z" fill="#fff"/>
</svg>
