<svg xmlns="http://www.w3.org/2000/svg" width="52.703" height="64.842" viewBox="0 0 52.703 64.842">
  <g id="money" transform="translate(-47.923 -0.001)">
    <g id="Groupe_1234" data-name="Groupe 1234" transform="translate(63.605 14.83)">
      <g id="Groupe_1233" data-name="Groupe 1233" transform="translate(0)">
        <g id="Groupe_1232" data-name="Groupe 1232">
          <path id="Tracé_519" data-name="Tracé 519" d="M316.209,117.161h.076S316.226,117.013,316.209,117.161Z" transform="translate(-297.914 -117.095)" fill="#3378e1"/>
          <path id="Tracé_520" data-name="Tracé 520" d="M171.747,117.161h.076C171.806,117.013,171.747,117.161,171.747,117.161Z" transform="translate(-171.747 -117.095)" fill="#3378e1"/>
        </g>
      </g>
    </g>
    <g id="Groupe_1236" data-name="Groupe 1236" transform="translate(47.923 0.001)">
      <g id="Groupe_1235" data-name="Groupe 1235" transform="translate(0 0)">
        <path id="Tracé_521" data-name="Tracé 521" d="M100.173,19.56A2.979,2.979,0,0,0,98.3,18.23l-4.11-.945,1.9-.531a3,3,0,1,0-1.616-5.774l-8.849,2.477a3.018,3.018,0,0,0-.953-1.045C86.469,9.069,89.056,3.4,89.056.958A.966.966,0,0,0,87.91.02a47.461,47.461,0,0,1-10.006,1,57.717,57.717,0,0,1-10.017-1,.965.965,0,0,0-1.02,1.428A9.923,9.923,0,0,1,68.1,4.733,19.827,19.827,0,0,1,58.93,3.164a.966.966,0,0,0-1.372,1.013A20.733,20.733,0,0,0,61.6,13.939h-.036a3,3,0,0,0-.392,5.97,35.851,35.851,0,0,1-4.206,5.279c-3.416,3.8-7.288,8.1-8.59,15.047a22.272,22.272,0,0,0,.062,9.245,17.124,17.124,0,0,0,3.511,7.059,21.62,21.62,0,0,0,9.267,6.306,34.544,34.544,0,0,0,23.149,0,21.621,21.621,0,0,0,9.267-6.306,17.123,17.123,0,0,0,3.511-7.059,22.274,22.274,0,0,0,.062-9.245c-1.3-6.947-5.174-11.25-8.59-15.047-1.16-1.289-2.263-2.518-3.188-3.765l11.535,2.65a3,3,0,0,0,3.212-4.513ZM77.883,2.935a48.323,48.323,0,0,0,9.077-.787,49.569,49.569,0,0,1-4.191,9.759,3,3,0,0,0-2.614,2.032H77.5c-.06-.129-.127-.271-.2-.428-.821-1.746-2.531-5.38-2.531-8.471A.966.966,0,0,0,73.623,4.1a33.765,33.765,0,0,1-3.613.516,12.34,12.34,0,0,0-.642-2.384A64.44,64.44,0,0,0,77.883,2.935Zm6.2,11.961v4.082a1.084,1.084,0,1,1-2.169,0V14.9a1.084,1.084,0,1,1,2.169,0ZM59.788,5.586A24.2,24.2,0,0,0,68.3,6.653l1.9-.12c.894-.082,1.8-.2,2.716-.355a25.566,25.566,0,0,0,2.472,7.76H64.041a.978.978,0,0,0-.07-.1A18.31,18.31,0,0,1,59.788,5.586Zm27.4,20.882c3.248,3.609,6.928,7.7,8.132,14.119,1.108,5.908.043,10.864-3.165,14.729-3.956,4.766-11.2,7.612-19.369,7.612s-15.413-2.846-19.369-7.612c-3.208-3.865-4.273-8.821-3.165-14.729,1.2-6.42,4.885-10.51,8.132-14.119a31.371,31.371,0,0,0,4.952-6.533h2.337a.957.957,0,0,0,0-1.914H61.563a1.084,1.084,0,1,1,0-2.169H80v2.169h-9.76a.957.957,0,0,0,0,1.914h9.917a3,3,0,0,0,3.289,2.008A46.528,46.528,0,0,0,87.192,26.468Zm-1.2-11.128,9-2.518a1.084,1.084,0,1,1,.585,2.088L90.434,16.35a.949.949,0,0,0-.121.044L85.994,15.4Zm12.695,6.054a1.085,1.085,0,0,1-1.3.814L85.934,19.576a3.005,3.005,0,0,0,.06-.6V17.365l11.881,2.73A1.1,1.1,0,0,1,98.689,21.394Z" transform="translate(-47.923 -0.001)" fill="#3378e1"/>
      </g>
    </g>
    <g id="Groupe_1238" data-name="Groupe 1238" transform="translate(64.178 24.145)">
      <g id="Groupe_1237" data-name="Groupe 1237" transform="translate(0)">
        <path id="Tracé_522" data-name="Tracé 522" d="M191.013,205.831a2.491,2.491,0,0,0,2.488-2.488v-1.531a7.091,7.091,0,0,0-6.124-7.016v-1.659a2.488,2.488,0,0,0-4.976,0v1.786a7.846,7.846,0,0,0,1.722,15.5h1.531a2.871,2.871,0,0,1,0,5.741h-2.3a2.107,2.107,0,0,1-2.105-2.105,2.488,2.488,0,1,0-4.976,0,7.091,7.091,0,0,0,6.124,7.016v1.659a2.488,2.488,0,0,0,4.976,0v-1.786a7.846,7.846,0,0,0-1.722-15.5h-1.531a2.871,2.871,0,1,1,0-5.741h2.3a2.107,2.107,0,0,1,2.105,2.105v1.531A2.491,2.491,0,0,0,191.013,205.831Zm-4.593-8.037h-2.3a4.784,4.784,0,0,0,0,9.568h1.531a5.932,5.932,0,0,1,.66,11.827.957.957,0,0,0-.851.951v2.6a.574.574,0,0,1-1.148,0v-2.552a.957.957,0,0,0-.957-.957,5.173,5.173,0,0,1-5.167-5.167.574.574,0,1,1,1.148,0,4.023,4.023,0,0,0,4.019,4.019h2.3a4.784,4.784,0,0,0,0-9.568h-1.531a5.932,5.932,0,0,1-.66-11.827.957.957,0,0,0,.851-.951v-2.6a.574.574,0,0,1,1.148,0v2.551a.957.957,0,0,0,.957.957,5.173,5.173,0,0,1,5.167,5.167v1.531a.574.574,0,1,1-1.148,0v-1.531A4.023,4.023,0,0,0,186.42,197.793Z" transform="translate(-176.277 -190.649)" fill="#bc412b"/>
      </g>
    </g>
  </g>
</svg>
