<svg xmlns="http://www.w3.org/2000/svg" width="54" height="54" viewBox="0 0 54 54">
  <g id="Groupe_2180" data-name="Groupe 2180" transform="translate(-1207.167 -13)">
    <circle id="Ellipse_49" data-name="Ellipse 49" cx="27" cy="27" r="27" transform="translate(1207.167 13)" fill="#f8f8f8"/>
    <g id="Iconly_Light_Notification" data-name="Iconly/Light/Notification" transform="translate(1227.083 31.667)">
      <g id="Notification">
        <path id="Path_425" d="M1396.5,56.822V56.64a3,3,0,0,1,.5-1.515A4.056,4.056,0,0,0,1398,53.2c0-.555,0-1.119.049-1.674.251-2.674,2.894-4.523,5.505-4.523h.065c2.611,0,5.255,1.849,5.514,4.523.049.555,0,1.119.041,1.674a4.129,4.129,0,0,0,.994,1.936,2.917,2.917,0,0,1,.5,1.508v.174a2.971,2.971,0,0,1-.7,1.992,3.755,3.755,0,0,1-2.377,1.142,37.564,37.564,0,0,1-8.013,0,3.794,3.794,0,0,1-2.377-1.142A3,3,0,0,1,1396.5,56.822Z" transform="translate(-1396.499 -47)" fill="none" stroke="#200e32" stroke-width="1.75"/>
        <path id="Path_421" d="M1402.555,65.852a2.571,2.571,0,0,0,3.573.421,2.4,2.4,0,0,0,.437-.421" transform="translate(-1397.509 -50.142)" fill="none" stroke="#200e32" stroke-width="1.75"/>
      </g>
    </g>
  </g>
</svg>
