<svg xmlns="http://www.w3.org/2000/svg" width="58.5" height="57.5" viewBox="0 0 58.5 57.5">
  <g id="setting_navbar" transform="translate(0.167 2.5)">
    <circle id="Ellipse_55" data-name="Ellipse 55" cx="27" cy="27" r="27" transform="translate(-0.167 1)" fill="#43ad45"/>
    <g id="Iconly_Light_Setting" data-name="Iconly/Light/Setting" transform="translate(19.422 19.991)">
      <g id="Setting">
        <path id="Path_33946" d="M1606.885,51.732l-.519-.9a1.594,1.594,0,0,0-2.174-.587h0a1.587,1.587,0,0,1-2.174-.564,1.523,1.523,0,0,1-.213-.763h0a1.594,1.594,0,0,0-1.594-1.64h-1.045a1.586,1.586,0,0,0-1.586,1.594h0a1.594,1.594,0,0,1-1.594,1.571,1.526,1.526,0,0,1-.763-.214h0a1.594,1.594,0,0,0-2.174.587l-.557.915a1.6,1.6,0,0,0,.58,2.174h0a1.594,1.594,0,0,1,0,2.761h0a1.587,1.587,0,0,0-.58,2.166h0l.526.908a1.594,1.594,0,0,0,2.174.618h0a1.58,1.58,0,0,1,2.167.58,1.524,1.524,0,0,1,.213.763h0a1.594,1.594,0,0,0,1.594,1.594h1.045a1.594,1.594,0,0,0,1.594-1.586h0a1.586,1.586,0,0,1,1.594-1.594,1.626,1.626,0,0,1,.763.214h0a1.594,1.594,0,0,0,2.174-.58h0l.549-.915a1.587,1.587,0,0,0-.58-2.174h0a1.586,1.586,0,0,1-.58-2.174,1.563,1.563,0,0,1,.58-.58h0a1.6,1.6,0,0,0,.58-2.166h0Z" transform="translate(-1592.278 -47.278)" fill="none" stroke="#fff" stroke-width="1.75"/>
        <circle id="Ellipse_737" cx="2.2" cy="2.2" r="2.2" transform="translate(5.21 5.81)" fill="none" stroke="#fff" stroke-width="1.75"/>
      </g>
    </g>
    <circle id="Ellipse_56" data-name="Ellipse 56" cx="9" cy="9" r="9" transform="translate(37.833)" fill="#43ad45" stroke="#fff" stroke-width="5"/>
  </g>
</svg>
