<svg xmlns="http://www.w3.org/2000/svg" width="17.595" height="14.297" viewBox="0 0 17.595 14.297">
  <g id="twitter" transform="translate(0)">
    <g id="Groupe_1873" data-name="Groupe 1873" transform="translate(0 0)">
      <path id="Tracé_2247" data-name="Tracé 2247" d="M17.6,49.693a7.52,7.52,0,0,1-2.078.57A3.587,3.587,0,0,0,17.1,48.268a7.209,7.209,0,0,1-2.287.873,3.607,3.607,0,0,0-6.24,2.467,3.715,3.715,0,0,0,.084.823,10.21,10.21,0,0,1-7.435-3.773,3.608,3.608,0,0,0,1.108,4.821A3.562,3.562,0,0,1,.7,53.035v.04a3.624,3.624,0,0,0,2.89,3.544,3.6,3.6,0,0,1-.946.119,3.189,3.189,0,0,1-.683-.062,3.641,3.641,0,0,0,3.371,2.513A7.248,7.248,0,0,1,.863,60.727,6.755,6.755,0,0,1,0,60.678,10.155,10.155,0,0,0,5.534,62.3,10.2,10.2,0,0,0,15.8,52.032c0-.159-.005-.313-.013-.466A7.2,7.2,0,0,0,17.6,49.693Z" transform="translate(0 -48)" fill="#fff"/>
    </g>
  </g>
</svg>
